<svg version="1.1" xmlns="http://www.w3.org/2000/svg" xmlns:xlink="http://www.w3.org/1999/xlink" width="54.47621" height="67.02998" viewBox="0,0,54.47621,67.02998"><g transform="translate(-212.76189,-146.48501)"><g data-paper-data="{&quot;isPaintingLayer&quot;:true}" fill="#ff0000" fill-rule="nonzero" stroke="none" stroke-width="0" stroke-linecap="round" stroke-linejoin="miter" stroke-miterlimit="10" stroke-dasharray="" stroke-dashoffset="0" style="mix-blend-mode: normal"><path d="M217.06236,160.78501c-0.366,0.25 -0.951,0.333 -1.1,0.75c-0.372,1.04 -0.321,2.195 -0.35,3.3c-0.087,3.279 0.112,6.572 0,9.85c-0.028,0.82 -0.204,1.654 -0.4,1.85c-0.142,0.142 -0.178,-0.756 -0.35,-1.1c-0.563,-1.127 -1.626,-2.06 -1.85,-3.3c-0.411,-2.278 -0.247,-4.649 0,-6.95c0.124,-1.152 0.442,-2.347 1.1,-3.3c0.984,-1.424 3.7,-3.65 3.7,-3.65z"/><path d="M252.96236,147.98501c0,0 0.706,1.736 1.45,2.2c1.309,0.817 2.995,0.813 4.4,1.45c1.293,0.586 2.58,1.267 3.65,2.2c0.914,0.797 1.708,1.792 2.2,2.9c0.992,2.233 1.632,4.624 2.2,7c0.17,0.713 -0.044,1.469 0,2.2c0.073,1.219 0.481,2.436 0.35,3.65c-0.124,1.152 -0.62,4.413 -1.1,3.3c-1.922,-4.451 -2.425,-9.54 -3.65,-14.3c-0.973,-3.782 -1.822,-7.611 -2.95,-11.35c-0.282,-0.935 -0.467,-0.5 -0.7,-0.75"/><path d="M234.26236,181.63501c0,2.564 -0.1,5.138 0,7.7c0.034,0.859 0.241,1.705 0.4,2.55c0.208,1.104 0.644,2.178 0.7,3.3c0.062,1.236 0.102,2.548 -0.35,3.7c-0.134,0.341 -1.009,1.858 -1.1,0c-0.366,-7.434 0,-22.35 0,-22.35"/><path d="M255.16236,193.38501c0.117,0.366 0.32,0.717 0.35,1.1c0.087,1.095 -0.295,2.241 0,3.3c0.57,2.047 2.071,3.78 2.55,5.85c0.275,1.19 0.362,2.711 -0.35,3.65c-0.388,0.511 -1.533,-0.166 -1.85,-0.75c-0.527,-0.971 -0.233,-2.201 -0.35,-3.3c-0.116,-1.082 -0.261,-2.165 -0.35,-3.25c-0.161,-1.963 -0.24,-3.937 -0.4,-5.9c-0.09,-1.101 -0.35,-3.3 -0.35,-3.3z"/><path d="M218.51236,193.73501c0.25,0.25 0.646,0.393 0.75,0.75c0.416,1.427 0.14,3.045 0.75,4.4c0.421,0.934 1.719,1.246 2.2,2.15c0.528,0.992 0.576,2.184 0.7,3.3c0.243,2.188 0.841,4.443 0.4,6.6c-0.208,1.015 -1.218,1.87 -2.2,2.2c-1.047,0.352 -3.039,0.777 -3.3,-0.35c-1.044,-4.509 -0.089,-9.272 0,-13.9c0.028,-1.47 0.35,-4.4 0.35,-4.4z"/></g></g></svg>