<svg viewBox="0,0,82.422,63.7139" height="63.7139" width="82.422" xmlns:xlink="http://www.w3.org/1999/xlink" xmlns="http://www.w3.org/2000/svg" version="1.1"><g transform="translate(-199.63496,-148.64779)"><g style="mix-blend-mode: normal" stroke-dashoffset="0" stroke-dasharray="" stroke-miterlimit="10" stroke-linejoin="miter" stroke-linecap="round" stroke-width="0" stroke="#ffffff" fill-rule="nonzero" fill="#ff0000" data-paper-data="{&quot;isPaintingLayer&quot;:true}"><path d="M204.04145,175.94549c0,0.982 0.219,1.992 0,2.95c-0.16,0.699 -0.799,1.2 -1.1,1.85c-0.434,0.937 -0.589,2.002 -1.1,2.9c-0.128,0.224 -0.189,-0.109 -0.35,-0.35c-0.643,-0.965 -1.96,-1.796 -1.85,-2.95c0.161,-1.686 1.474,-3.092 2.55,-4.4c0.66,-0.803 2.55,-1.8 2.55,-1.8z"></path><path d="M224.54145,164.24549c0,0 2.753,-0.832 4,-0.35c1.21,0.467 2.058,1.722 2.6,2.9c0.846,1.838 0.81,3.981 1.45,5.9c0.16,0.48 -0.068,0.646 0.75,0.7c3.273,0.216 6.602,-0.457 9.85,0c1.248,0.176 2.805,0.691 3.3,1.85c0.455,1.065 -0.471,2.327 -1.1,3.3c-0.514,0.795 -1.467,1.201 -2.2,1.8"></path><path d="M211.34145,203.44549c0.616,0.966 1.519,1.803 1.85,2.9c0.102,0.338 -0.713,0.399 -0.75,0.75c-0.091,0.855 0.06,1.761 0.4,2.55c0.412,0.954 1.541,1.607 1.8,2.55c0.091,0.332 -0.742,0.077 -1.1,0c-1.35,-0.291 -2.978,-0.171 -4,-1.1c-0.721,-0.656 -0.651,-1.958 -0.4,-2.9c0.27,-1.014 1.347,-1.629 1.85,-2.55c0.968,-1.771 2.55,-5.5 2.55,-5.5z"></path><path d="M238.09145,205.64549c0,0 0.1,-0.53 0.7,-0.75c2.399,-0.879 4.824,-1.816 7.35,-2.2c0.765,-0.116 1.771,0.106 2.2,0.75c0.471,0.707 0.29,1.752 0,2.55c-0.358,0.986 -1.297,1.659 -1.85,2.55c-0.432,0.696 -0.646,1.518 -1.1,2.2c-0.287,0.431 -0.589,1.013 -1.1,1.1c-1.089,0.186 -2.525,0.438 -3.3,-0.35c-0.614,-0.625 0.336,-1.726 0.4,-2.6c0.07,-0.963 0.315,-1.987 0,-2.9c-0.226,-0.657 -1,-0.967 -1.5,-1.45z"></path><path d="M208.79145,156.19549c0.25,-0.25 0.403,-0.686 0.75,-0.75c1.081,-0.2 2.463,-0.712 3.3,0c0.976,0.83 0.79,2.446 1.05,3.7c0.225,1.084 0.63,2.217 0.4,3.3c-0.076,0.358 -0.743,0.083 -1.1,0c-1.237,-0.286 -2.725,-0.23 -3.65,-1.1c-1.193,-1.122 -1.769,-2.82 -2.2,-4.4c-0.114,-0.419 0.7,-1.1 0.7,-1.1z"></path><path d="M273.59145,176.69549c0,0 -0.299,-4.157 0,-6.2c0.192,-1.309 0.605,-2.681 1.45,-3.7c0.491,-0.592 1.438,-0.804 2.2,-0.7c1.189,0.162 2.415,0.639 3.3,1.45c0.812,0.745 1.43,1.85 1.5,2.95c0.074,1.156 -0.089,2.735 -1.1,3.3c-1.395,0.78 -3.244,-0.364 -4.8,0c-1.107,0.259 -1.968,1.149 -2.9,1.8c-0.29,0.202 -0.5,0.5 -0.75,0.75z"></path><path d="M239.89145,159.84549c0,0 -0.028,-4.672 0.4,-6.95c0.199,-1.061 0.722,-2.102 1.45,-2.9c0.552,-0.605 1.392,-0.965 2.2,-1.1c1.445,-0.241 2.993,-0.409 4.4,0c0.814,0.236 1.353,1.08 1.8,1.8c0.193,0.311 0.425,0.901 0,1.1c-1.701,0.796 -3.602,1.117 -5.45,1.45c-0.852,0.153 -2.06,-0.677 -2.6,0c-0.772,0.968 0.318,2.658 -0.35,3.7c-0.591,0.922 -1.968,0.967 -2.95,1.45z"></path><path d="M269.94145,199.39549c0,0 1.9,2.298 1.8,3.65c-0.059,0.802 -1.401,0.808 -2.15,1.1c-0.84,0.327 -1.781,0.375 -2.6,0.75c-0.798,0.366 -1.636,1.859 -2.2,1.45c-0.711,-0.516 -0.662,-2.24 -0.35,-3.3c0.243,-0.825 1.234,-1.201 1.85,-1.8"></path></g></g></svg>