<svg version="1.1" xmlns="http://www.w3.org/2000/svg" xmlns:xlink="http://www.w3.org/1999/xlink" width="60.14075" height="116.16398" viewBox="0,0,60.14075,116.16398"><g transform="translate(-207.0014,-95.28109)"><g data-paper-data="{&quot;isPaintingLayer&quot;:true}" fill-rule="nonzero" stroke="none" stroke-width="1" stroke-linecap="butt" stroke-linejoin="miter" stroke-miterlimit="10" stroke-dasharray="" stroke-dashoffset="0" style="mix-blend-mode: normal"><path d="M253.61657,103.52866c0.02227,2.62479 -1.78912,5.11655 -3.41853,7.05434c-1.30638,1.39405 -2.67415,3.63441 -2.67636,5.61935c0.33286,4.20704 1.3812,8.3242 3.1655,12.06937c0.06541,0.07564 0.05518,0.21669 0.18599,0.36798c1.16091,2.5656 2.76543,4.87979 4.21867,7.32481c3.7568,5.87337 6.90846,12.27001 9.04207,19.01818c-0.01023,0.14105 0.05518,0.21669 0.04494,0.35774c0.73775,2.5349 1.25882,5.12498 1.49778,7.69459c0.05518,0.21669 0.11035,0.43338 0.02448,0.63984c0.30437,2.64525 0.60874,5.2905 0.63101,7.91529c-0.0307,0.42315 0.01424,0.7809 0.05919,1.13864c0.04494,0.35774 0.01424,0.7809 -0.00622,1.063c-0.07163,0.98735 0.14907,1.85412 0.29414,2.7863c0.32082,1.44121 0.36978,2.72089 0.4085,4.14163c-0.01023,0.14105 -0.02047,0.2821 0.04494,0.35774c-0.02047,0.2821 0.02448,0.63984 0.00401,0.92195c-0.01023,0.14105 -0.01023,0.14105 -0.02047,0.2821c-0.02047,0.2821 -0.04093,0.5642 0.01424,0.7809c-0.01023,0.14105 -0.01023,0.14105 -0.02047,0.2821c0.03471,0.49879 -0.07163,0.98735 -0.17797,1.47592c-0.02047,0.2821 -0.0307,0.42315 0.02448,0.63984c0.01424,0.7809 0.01424,0.7809 -0.08186,1.12841c-0.07564,0.06541 -0.15128,0.13082 -0.15128,0.13082c0.06541,0.07564 0.13082,0.15128 0.13082,0.15128c-0.02047,0.2821 -0.10634,0.48856 -0.12681,0.77066c-0.01023,0.14105 -0.02047,0.2821 -0.10634,0.48856c-0.01023,0.14105 -0.09611,0.34751 -0.10634,0.48856c-0.01023,0.14105 -0.02047,0.2821 -0.10634,0.48856c-0.10634,0.48856 -0.21268,0.97712 -0.31902,1.46568c-0.01023,0.14105 -0.01023,0.14105 -0.02047,0.2821c-0.72392,3.13782 -1.72993,6.25518 -3.00782,9.21103c-0.07564,0.06541 -0.08587,0.20646 -0.16152,0.27187c-0.25762,0.61938 -0.57042,1.02206 -0.9691,1.63121c-0.16152,0.27187 -0.32303,0.54374 -0.3435,0.82584c-1.0305,2.47751 -4.03971,3.88982 -6.31298,4.93015c-1.61295,0.73374 -3.34649,1.17515 -4.93898,1.62679c-0.07564,0.06541 -0.21669,0.05518 -0.29233,0.12058c-3.76965,1.14445 -7.44318,1.94139 -11.41307,1.93698c-0.35774,0.04494 -0.35774,0.04494 -0.7809,0.01424c-0.06541,-0.07564 -0.13082,-0.15128 -0.13082,-0.15128c-0.07564,0.06541 -0.14105,-0.01023 -0.21669,0.05518c-0.35774,0.04494 -0.63984,0.02448 -0.99759,0.06942c-0.14105,-0.01023 -0.2821,-0.02047 -0.42315,-0.0307c-0.14105,-0.01023 -0.2821,-0.02047 -0.42315,-0.0307c-0.2821,-0.02047 -0.2821,-0.02047 -0.42315,-0.0307c-0.2821,-0.02047 -0.70525,-0.05116 -0.98735,-0.07163c-0.42315,-0.0307 -0.8463,-0.0614 -1.26946,-0.0921c-0.42315,-0.0307 -0.8463,-0.0614 -1.12841,-0.08186c-0.14105,-0.01023 -0.2821,-0.02047 -0.42315,-0.0307c-0.70525,-0.05116 -1.47592,-0.17797 -2.18117,-0.22913c-0.34751,-0.09611 -0.70525,-0.05116 -1.12841,-0.08186c-1.19381,-0.1575 -2.38763,-0.31501 -3.57121,-0.61356c-0.14105,-0.01023 -0.14105,-0.01023 -0.2821,-0.02047c-4.5381,-0.9673 -10.31897,-3.37178 -13.08038,-7.32963c-0.82985,-1.26544 -1.00962,-2.69642 -1.1894,-4.12739c-0.15931,-1.71307 -0.39426,-3.36074 -1.128,-4.97369c-0.48234,-1.16934 -0.41071,-2.15669 -0.32885,-3.2851c0.11657,-0.62961 0.01645,-1.20405 -0.00802,-1.84389c0.01023,-0.14105 0.02047,-0.2821 0.0307,-0.42315c-0.06942,-0.99759 -0.06942,-0.99759 -0.50682,-1.80918c-0.31681,-0.51926 -0.54775,-1.24498 -0.72351,-1.75401c-0.06541,-0.07564 -0.05518,-0.21669 -0.12058,-0.29233c-0.46187,-1.45144 -0.07744,-2.84148 0.44804,-4.22129c0.17175,-0.41292 0.27809,-0.90148 0.31902,-1.46568c0.38042,-2.31199 0.38042,-2.31199 0.90991,-2.76985c-0.06541,-0.07564 -0.06541,-0.07564 -0.19623,-0.22693c-0.18599,-0.36798 -0.17576,-0.50903 -0.06942,-0.99759c0.20245,-0.83607 -0.0939,-1.63743 -0.3146,-2.5042c-0.77246,-3.03369 -0.84991,-5.87517 -0.20163,-8.94759c0.01023,-0.14105 0.01023,-0.14105 0.02047,-0.2821c0.63804,-2.93137 1.83005,-5.68075 3.29393,-8.26862c0.07564,-0.06541 0.16152,-0.27187 0.23716,-0.33728c0.64607,-1.08747 1.35754,-2.09931 2.06901,-3.11114c0.39867,-0.60915 0.78712,-1.07724 1.18579,-1.68639c0.07564,-0.06541 0.16152,-0.27187 0.23716,-0.33728c0.87299,-1.2837 1.82162,-2.63281 2.62921,-3.99215c0.07564,-0.06541 0.16152,-0.27187 0.23716,-0.33728c0.24739,-0.47833 0.63583,-0.94642 0.88322,-1.42475c0.56019,-0.88101 1.12038,-1.76203 1.74598,-2.5674c0.07564,-0.06541 0.16152,-0.27187 0.23716,-0.33728c0.32303,-0.54374 0.72171,-1.15288 1.11015,-1.62098c2.14466,-3.17655 3.59429,-6.54531 4.78229,-10.21664c0.08587,-0.20646 0.10634,-0.48856 0.19221,-0.69502c0.46007,-1.45545 0.71368,-2.99677 0.89165,-4.47269c0.01023,-0.14105 0.01023,-0.14105 0.02047,-0.2821c0.42135,-2.87619 0.17216,-5.30475 -1.43237,-7.61894c-0.96067,-1.41673 -1.78028,-2.82322 -2.52426,-4.29513c-0.06541,-0.07564 -0.05518,-0.21669 -0.12058,-0.29233c-0.80938,-1.54755 -1.46749,-3.22591 -0.98695,-4.96346c0.52548,-1.37981 1.22672,-2.25059 2.54734,-2.86375c1.16934,-0.48234 2.24257,-0.61717 3.41591,-0.17756c1.71709,0.76264 3.22149,2.5024 4.39885,3.86395c0.25762,-0.61938 0.36396,-1.10794 0.41513,-1.81319c0.01023,-0.14105 0.01023,-0.14105 0.02047,-0.2821c0.05116,-0.70525 0.03692,-1.48615 0.02268,-2.26704c-0.0632,-2.06058 0.57885,-4.07 2.03651,-5.59487c1.21027,-1.04654 2.3796,-1.52888 3.94139,-1.55737c0.70525,0.05116 1.24899,0.3742 1.78249,0.83828c1.49417,1.88081 1.00741,4.68136 0.84369,6.93817c0.07564,-0.06541 0.15128,-0.13082 0.22693,-0.19623c0.30257,-0.26164 0.60513,-0.52327 0.9077,-0.78491c0.15128,-0.13082 0.22693,-0.19623 0.37821,-0.32704c1.66412,-1.439 3.56941,-2.29332 5.76081,-2.20524c2.91712,-0.14285 3.99837,1.56621 4.10652,3.98454z" fill="#04060c"/><path d="M246.94684,121.19429c0.17576,0.50903 0.21047,1.00782 0.38623,1.51685c1.49999,5.70964 4.6681,10.90224 7.85668,15.81273c0.82985,1.26544 1.64947,2.67194 2.32803,4.0682c0.12058,0.29233 0.31681,0.51926 0.4374,0.81159c1.49818,2.80276 2.77967,5.66069 3.90988,8.64944c0.06541,0.07564 0.05518,0.21669 0.18599,0.36798c0.24117,0.58467 0.4067,1.23475 0.64787,1.81941c0.06541,0.07564 0.05518,0.21669 0.12058,0.29233c0.58246,1.74377 0.94823,3.54272 1.31399,5.34167c0.04494,0.35774 0.10012,0.57444 0.2207,0.86677c0.27588,1.08346 0.41071,2.15669 0.54554,3.22992c0.04494,0.35774 0.08989,0.71549 0.13483,1.07323c0.26966,2.14646 0.46368,4.35833 0.59228,6.49455c-0.01023,0.14105 0.05518,0.21669 0.04494,0.35774c0.03471,0.49879 -0.00622,1.063 -0.04715,1.6272c-0.06541,-0.07564 -0.06541,-0.07564 -0.05518,-0.21669c-0.23094,-0.72572 -0.67857,-1.39626 -0.98515,-2.05657c-0.38222,-0.5949 -0.62339,-1.17957 -0.92997,-1.83988c-0.17576,-0.50903 -0.42716,-0.95264 -0.75421,-1.33085c-0.31681,-0.51926 -0.56821,-0.96288 -0.80938,-1.54755c-0.36175,-0.877 -0.87479,-1.62319 -1.3776,-2.51042c-0.38222,-0.5949 -0.69903,-1.11416 -1.00561,-1.77447c-0.80938,-1.54755 -1.90087,-3.11556 -2.93718,-4.46688c-0.06541,-0.07564 -0.13082,-0.15128 -0.19623,-0.22693c-0.58868,-0.68078 -1.05678,-1.06922 -1.96849,-1.20626c-0.8463,-0.0614 -1.31039,0.47211 -1.91552,0.99538c-0.38844,0.4681 -0.6256,0.80537 -0.88322,1.42475c-0.24739,0.47833 -0.49478,0.95666 -0.81781,1.50039c-0.40891,0.7502 -0.74217,1.43498 -1.15108,2.18518c-0.07564,0.06541 -0.08587,0.20646 -0.16152,0.27187c-0.25762,0.61938 -0.58066,1.16312 -0.83828,1.78249c-0.23716,0.33728 -0.37821,0.32704 -0.81159,0.4374c-1.58226,0.31059 -3.21969,0.40449 -4.85712,0.49839c-0.49879,0.03471 -0.85654,0.07965 -1.35533,0.11436c-1.21428,0.1246 -2.42856,0.24919 -3.5672,0.30838c-0.14105,-0.01023 -0.2821,-0.02047 -0.42315,-0.0307c-0.85654,0.07965 -1.70284,0.01826 -2.54914,-0.04314c-0.5642,-0.04093 -1.063,-0.00622 -1.56179,0.02849c-2.70043,0.08768 -5.2883,-1.3762 -7.21585,-3.14666c-0.06541,-0.07564 -0.19623,-0.22693 -0.33728,-0.23716c-1.66592,-1.46789 -3.2562,-3.00119 -4.76061,-4.74095c-0.06541,-0.07564 -0.13082,-0.15128 -0.19623,-0.22693c-0.13082,-0.15128 -0.32704,-0.37821 -0.45786,-0.52949c-0.4681,-0.38844 -0.88101,-0.56019 -1.45545,-0.46007c-0.36798,0.18599 -0.74618,0.51304 -1.04875,0.77467c-0.07564,0.06541 -0.07564,0.06541 -0.22693,0.19623c-0.52949,0.45786 -0.99358,0.99137 -1.32684,1.67615c-0.16152,0.27187 -0.24739,0.47833 -0.40891,0.7502c-0.07564,0.06541 -0.08587,0.20646 -0.08587,0.20646c-1.16131,2.32623 -2.51885,4.42554 -4.08285,6.43897c-1.17556,1.54534 -2.07925,3.25219 -2.71107,5.12056c-0.07564,0.06541 -0.08587,0.20646 -0.08587,0.20646c-1.53289,-3.30155 -0.42455,-7.82942 0.73275,-11.07759c0.07564,-0.06541 0.08587,-0.20646 0.16152,-0.27187c1.1573,-3.24818 2.93398,-6.23873 4.98253,-9.06777c0.3128,-0.40269 0.54996,-0.73996 0.86276,-1.14265c0.16152,-0.27187 0.3128,-0.40269 0.47432,-0.67455c1.26143,-1.7518 2.45746,-3.57923 3.65348,-5.40667c0.3128,-0.40269 0.56019,-0.88101 0.79735,-1.21829c0.07564,-0.06541 0.08587,-0.20646 0.16152,-0.27187c1.67034,-2.50199 1.67034,-2.50199 2.38181,-3.51382c0.3128,-0.40269 0.54996,-0.73996 0.79735,-1.21829c0.07564,-0.06541 0.15128,-0.13082 0.08587,-0.20646c1.74598,-2.5674 2.82764,-5.75017 3.74778,-8.66107c0.01023,-0.14105 0.01023,-0.14105 0.02047,-0.2821c0.55618,-1.80296 0.97131,-3.61615 1.17998,-5.51522c0.01023,-0.14105 0.02047,-0.2821 0.0307,-0.42315c0.11657,-0.62961 0.1575,-1.19381 0.13303,-1.83366c0.01023,-0.14105 0.02047,-0.2821 0.0307,-0.42315c0.52949,-0.45786 1.10393,-0.55798 1.75401,-0.72351c0.07564,-0.06541 0.21669,-0.05518 0.29233,-0.12058c0.21669,-0.05518 0.43338,-0.11035 0.65008,-0.16553c0.35774,-0.04494 0.65008,-0.16553 1.08346,-0.27588c1.08346,-0.27588 2.24257,-0.61717 3.3812,-0.67636c0.14105,0.01023 0.21669,-0.05518 0.35774,-0.04494c0.35774,-0.04494 0.63984,-0.02448 0.99759,-0.06942c0.21669,-0.05518 0.49879,-0.03471 0.63984,-0.02448c0.14105,0.01023 0.21669,-0.05518 0.35774,-0.04494c0.42315,0.0307 0.7809,-0.01424 1.20405,0.01645c1.56179,-0.02849 2.90689,-0.0018 4.20082,0.73014c0.20646,0.08587 0.27187,0.16152 0.47833,0.24739c0.27187,0.16152 0.68479,0.33327 0.95666,0.49478c0.5335,0.46408 0.80537,0.6256 1.04654,1.21027z" fill="#7d5091"/><path d="M256.15502,158.44492c0.13082,0.15128 0.32704,0.37821 0.45786,0.52949c1.23254,1.57824 2.24838,3.21166 3.25399,4.98613c0.18599,0.36798 0.37199,0.73595 0.63362,1.03852c0.4374,0.81159 0.87479,1.62319 1.31219,2.43478c0.18599,0.36798 0.4374,0.81159 0.62339,1.17957c0.2514,0.44362 0.4374,0.81159 0.54775,1.24498c0.18599,0.36798 0.37199,0.73595 0.55798,1.10393c0.51304,0.74618 0.80938,1.54755 1.0955,2.48996c0.29635,0.80136 0.52728,1.52708 0.89927,2.26303c1.03009,2.41432 0.78049,4.87759 0.5963,7.4165c-0.01023,0.14105 -0.01023,0.14105 -0.02047,0.2821c-0.07163,0.98735 -0.20867,1.89907 -0.2803,2.88642c-0.01023,0.14105 -0.09611,0.34751 -0.04093,0.5642c-0.52769,3.36475 -1.25161,6.50257 -2.47432,9.67511c-0.01023,0.14105 -0.09611,0.34751 -0.17175,0.41292c-0.42937,1.0323 -0.7831,1.99919 -1.35353,3.02125c-0.06541,-0.07564 -0.27187,-0.16152 -0.33728,-0.23716c-2.2853,-1.72552 -4.18437,-1.93418 -6.97067,-1.64005c-0.49879,0.03471 -0.99759,0.06942 -1.49638,0.10413c-0.14105,-0.01023 -0.21669,0.05518 -0.35774,0.04494c-0.7809,0.01424 -1.63743,0.0939 -2.34269,0.04273c-0.63984,0.02448 -1.20405,-0.01645 -1.84389,0.00802c-0.7809,0.01424 -1.63743,0.0939 -2.48374,0.0325c-0.42315,-0.0307 -0.7809,0.01424 -1.20405,-0.01645c-0.85654,0.07965 -1.70284,0.01826 -2.61455,-0.11878c-0.14105,-0.01023 -0.2821,-0.02047 -0.42315,-0.0307c-0.98735,-0.07163 -1.82343,-0.27408 -2.73514,-0.41112c-0.14105,-0.01023 -0.2821,-0.02047 -0.34751,-0.09611c-1.74778,-0.33949 -3.35452,-0.66874 -5.01643,-1.21469c-1.24899,-0.3742 -2.57362,-0.68299 -3.7572,-0.98154c-0.2821,-0.02047 -0.62961,-0.11657 -0.83607,-0.20245c-1.67214,-0.4049 -3.34428,-0.80979 -5.03689,-0.93259c-0.34751,-0.09611 -0.70525,-0.05116 -1.05276,-0.14727c-1.75802,-0.19844 -3.52627,-0.25582 -5.30475,-0.17216c-0.42315,-0.0307 -0.85654,0.07965 -1.27969,0.04895c-0.5642,-0.04093 -1.13864,0.05919 -1.71307,0.15931c-0.35774,0.04494 -0.63984,0.02448 -0.99759,0.06942c-0.07564,0.06541 -0.14105,-0.01023 -0.21669,0.05518c-1.92977,0.21448 -1.92977,0.21448 -2.67996,-0.19442c-0.5335,-0.46408 -0.99137,-0.99358 -1.08125,-1.70906c-0.02448,-0.63984 0.02669,-1.3451 0.07785,-2.05035c0.05116,-0.70525 -0.04895,-1.27969 -0.21448,-1.92977c-0.05518,-0.21669 -0.05518,-0.21669 -0.02448,-0.63984c0.06541,0.07564 0.06541,0.07564 0.13082,0.15128c1.89686,2.19361 4.0064,3.4101 6.93776,4.04814c0.48856,0.10634 0.97712,0.21268 1.45545,0.46007c0.90148,0.27809 1.73755,0.48054 2.72491,0.55217c0.2821,0.02047 0.62961,0.11657 0.98735,0.07163c1.68238,0.26384 3.24417,0.23536 4.95724,0.07605c0.21669,-0.05518 0.43338,-0.11035 0.63984,-0.02448c0.14105,0.01023 0.21669,-0.05518 0.35774,-0.04494c0.85654,-0.07965 1.56179,-0.02849 2.40809,0.03291c0.42315,0.0307 0.42315,0.0307 0.65008,-0.16553c0.22693,-0.19623 0.22693,-0.19623 0.11657,-0.62961c-0.19623,-0.22693 -0.19623,-0.22693 -0.4681,-0.38844c-0.35774,0.04494 -0.35774,0.04494 -0.71549,0.08989c-0.65008,0.16553 -1.28992,0.19001 -1.91953,0.07343c-0.42315,-0.0307 -0.7809,0.01424 -1.27969,0.04895c-0.63984,0.02448 -1.20405,-0.01645 -1.9093,-0.06762c-0.2821,-0.02047 -0.63984,0.02448 -0.92195,0.00401c-0.92195,0.00401 -1.76825,-0.05739 -2.67996,-0.19442c-0.14105,-0.01023 -0.2821,-0.02047 -0.5642,-0.04093c-0.42315,-0.0307 -0.8463,-0.0614 -1.26946,-0.0921c-0.06541,-0.07564 -0.05518,-0.21669 -0.05518,-0.21669c0.06541,0.07564 0.14105,0.01023 0.20646,0.08587c5.34969,0.5299 10.32338,-0.5981 14.80049,-3.67633c0.2514,0.44362 0.4374,0.81159 0.61316,1.32062c0.30658,0.66031 0.6888,1.25521 1.07102,1.85011c0.06541,0.07564 0.13082,0.15128 0.19623,0.22693c2.21367,2.71287 5.17975,3.84971 8.6099,4.45304c0.20646,0.08587 0.42315,0.0307 0.62961,0.11657c1.19381,0.1575 2.33245,0.09832 3.5365,0.11477c0.2821,0.02047 0.49879,-0.03471 0.7809,-0.01424c2.20163,-0.05297 5.40086,-0.17535 7.14062,-1.67976c-0.13082,-0.15128 -0.12058,-0.29233 -0.2514,-0.44362c-0.07564,0.06541 -0.07564,0.06541 -0.21669,0.05518c-0.73595,0.37199 -1.46167,0.60292 -2.32844,0.82363c-0.14105,-0.01023 -0.21669,0.05518 -0.35774,0.04494c-1.30015,0.33106 -2.59008,0.52106 -3.93517,0.49438c-0.35774,0.04494 -0.63984,0.02448 -0.99759,0.06942c-1.42074,0.03872 -2.76584,0.01204 -4.24175,-0.16594c-0.06541,-0.07564 -0.05518,-0.21669 -0.05518,-0.21669c0.14105,0.01023 0.2821,0.02047 0.42315,0.0307c1.97471,0.14326 4.46868,-0.03029 5.98151,-1.33847c0.07564,-0.06541 0.21669,-0.05518 0.29233,-0.12058c0.44362,-0.2514 0.81159,-0.4374 1.12439,-0.84008c0.07564,-0.06541 0.15128,-0.13082 0.22693,-0.19623c0.22693,-0.19623 0.45385,-0.39245 0.68078,-0.58868c0.07564,-0.06541 0.15128,-0.13082 0.22693,-0.19623c2.20384,-2.03791 3.96006,-4.74636 4.316,-7.69819c-0.11035,-0.43338 -0.08989,-0.71549 -0.35152,-1.01805c-0.41292,-0.17175 -0.69502,-0.19221 -1.05276,-0.14727c-0.14105,-0.01023 -0.2821,-0.02047 -0.42315,-0.0307c-0.14105,-0.01023 -0.2821,-0.02047 -0.42315,-0.0307c-0.7809,0.01424 -1.48615,-0.03692 -2.25681,-0.16373c-0.77066,-0.12681 -1.56179,0.02849 -2.34269,0.04273c-1.71307,0.15931 -3.26463,0.04675 -4.94701,-0.2171c-1.05276,-0.14727 -2.17094,-0.37019 -3.30957,-0.311c-0.2821,-0.02047 -0.5642,-0.04093 -0.8463,-0.0614c-1.11817,-0.22291 -2.18117,-0.22913 -3.2544,-0.09431c-0.93218,0.14506 -1.77848,0.08367 -2.67996,-0.19442c-0.55397,-0.18198 -1.12841,-0.08186 -1.70284,0.01826c-0.4374,-0.81159 -0.35553,-1.94 -0.35955,-2.86194c0.85654,-0.07965 1.63743,-0.0939 2.48374,-0.0325c0.14105,0.01023 0.2821,0.02047 0.35774,-0.04494c1.12841,0.08186 2.18117,0.22913 3.30957,0.311c0.77066,0.12681 1.61697,0.1882 2.46327,0.2496c0.14105,0.01023 0.2821,0.02047 0.42315,0.0307c0.8463,0.0614 1.55156,0.11256 2.33245,0.09832c1.3451,0.02669 2.61455,0.11878 4.01483,0.36216c0.14105,0.01023 0.14105,0.01023 0.2821,0.02047c0.91171,0.13704 1.74778,0.33949 2.58386,0.54193c0.97712,0.21268 2.04012,0.2189 3.03771,0.14948c0.92195,-0.00401 2.05035,0.07785 2.86596,0.5624c0.15128,-0.13082 0.30257,-0.26164 0.45385,-0.39245c-0.40269,-0.3128 -0.54374,-0.32303 -1.0323,-0.42937c-0.20646,-0.08587 -0.48856,-0.10634 -0.62961,-0.11657c-0.48856,-0.10634 -1.05276,-0.14727 -1.54132,-0.25361c-0.14105,-0.01023 -0.42315,-0.0307 -0.5642,-0.04093c-0.42315,-0.0307 -0.8463,-0.0614 -1.20405,-0.01645c-0.63984,0.02448 -1.26946,-0.0921 -1.88883,-0.34972c-0.55397,-0.18198 -1.18358,-0.29856 -1.74778,-0.33949c-0.14105,-0.01023 -0.20646,-0.08587 -0.34751,-0.09611c-1.46568,-0.31902 -2.9416,-0.49699 -4.43798,-0.39286c-0.7809,0.01424 -1.55156,-0.11256 -2.33245,-0.09832c-0.42315,-0.0307 -0.8463,-0.0614 -1.26946,-0.0921c-0.14105,-0.01023 -0.2821,-0.02047 -0.42315,-0.0307c-0.14105,-0.01023 -0.2821,-0.02047 -0.42315,-0.0307c-0.2821,-0.02047 -0.2821,-0.02047 -0.47833,-0.24739c-0.07564,0.06541 -0.15128,0.13082 -0.15128,0.13082c-0.2821,-0.02047 -0.48856,-0.10634 -0.77066,-0.12681c-1.40027,-0.24338 -2.81078,-0.34571 -4.23152,-0.30699c-0.2821,-0.02047 -0.5642,-0.04093 -0.8463,-0.0614c-0.24117,-0.58467 -0.20024,-1.14887 -0.15931,-1.71307c-0.05518,-0.21669 0.0307,-0.42315 -0.02448,-0.63984c0.01023,-0.14105 0.01023,-0.14105 0.02047,-0.2821c0.02047,-0.2821 -0.02448,-0.63984 -0.00401,-0.92195c-0.00401,-0.92195 0.20867,-1.89907 0.55217,-2.72491c0.08587,-0.20646 0.08587,-0.20646 0.10634,-0.48856c-0.18599,-0.36798 -0.18599,-0.36798 -0.45786,-0.52949c-0.30257,0.26164 -0.45385,0.39245 -0.54996,0.73996c-0.01023,0.14105 -0.01023,0.14105 -0.09611,0.34751c-0.01023,0.14105 -0.02047,0.2821 -0.0307,0.42315c-0.01023,0.14105 -0.02047,0.2821 -0.0307,0.42315c-0.01023,0.14105 -0.02047,0.2821 -0.0307,0.42315c-0.1575,1.19381 -0.16373,2.25681 -0.10454,3.39545c-0.01023,0.14105 -0.02047,0.2821 0.03471,0.49879c-0.01023,0.14105 -0.02047,0.2821 -0.0307,0.42315c-0.02047,0.2821 -0.02047,0.2821 -0.39867,0.60915c-0.35774,0.04494 -0.63984,0.02448 -0.92195,0.00401c-0.14105,-0.01023 -0.14105,-0.01023 -0.2821,-0.02047c-0.8463,-0.0614 -1.54132,-0.25361 -2.30175,-0.52147c-0.14105,-0.01023 -0.34751,-0.09611 -0.48856,-0.10634c-0.76043,-0.26786 -1.52086,-0.53571 -2.28129,-0.80357c-1.0323,-0.42937 -1.99919,-0.7831 -3.12759,-0.86497c-0.14105,-0.01023 -0.34751,-0.09611 -0.48856,-0.10634c-1.05276,-0.14727 -1.96448,-0.28431 -3.02747,-0.29053c-1.83366,-0.13303 -3.56098,-0.75462 -5.11655,-1.78912c-0.81561,-0.48455 -1.5658,-0.89346 -2.49798,-0.74839c-0.65008,0.16553 -1.23475,0.4067 -1.90529,0.85433c-0.07564,0.06541 -0.15128,0.13082 -0.30257,0.26164c-0.07564,0.06541 -0.15128,0.13082 -0.22693,0.19623c-0.08989,-0.71549 -0.1246,-1.21428 0.13303,-1.83366c0.01023,-0.14105 0.08587,-0.20646 0.02047,-0.2821c0.19221,-0.69502 0.46007,-1.45545 0.85875,-2.0646c0.01023,-0.14105 0.16152,-0.27187 0.17175,-0.41292c0.57042,-1.02206 1.13061,-1.90308 1.83186,-2.77386c0.54996,-0.73996 1.02427,-1.41452 1.50882,-2.23012c0.07564,-0.06541 0.08587,-0.20646 0.23716,-0.33728c0.39867,-0.60915 0.72171,-1.15288 0.97933,-1.77226c0.17175,-0.41292 0.48455,-0.81561 0.72171,-1.15288c0.47432,-0.67455 0.80758,-1.35934 1.14085,-2.04413c0.24739,-0.47833 0.56019,-0.88101 1.01404,-1.27347c0.07564,-0.06541 0.22693,-0.19623 0.30257,-0.26164c0.36798,-0.18599 0.66031,-0.30658 1.00782,-0.21047c0.54374,0.32303 0.86055,0.84229 1.253,1.29614c0.98113,1.13463 1.9725,2.1282 3.10492,3.13201c0.06541,0.07564 0.13082,0.15128 0.19623,0.22693c0.40269,0.3128 0.87078,0.70124 1.19783,1.07945c0.19623,0.22693 0.4681,0.38844 0.66432,0.61537c0.72973,0.69101 1.46969,1.24097 2.36094,1.66011c0.06541,0.07564 0.20646,0.08587 0.27187,0.16152c2.13,0.93439 4.17012,1.15329 6.4474,1.03491c0.42315,0.0307 0.92195,-0.00401 1.3451,0.02669c0.70525,0.05116 1.42074,-0.03872 2.06058,-0.0632c0.35774,-0.04494 0.85654,-0.07965 1.27969,-0.04895c0.7809,-0.01424 1.49638,-0.10413 2.28751,-0.25943c1.43097,-0.17977 2.7863,-0.29414 4.20704,-0.33286c0.2821,0.02047 0.63984,-0.02448 0.85654,-0.07965c0.31681,0.51926 0.31681,0.51926 0.29635,0.80136c-0.07564,0.06541 -0.08587,0.20646 -0.16152,0.27187c-0.01023,0.14105 -0.01023,0.14105 -0.16152,0.27187c-0.07564,0.06541 -0.08587,0.20646 -0.09611,0.34751c-0.08587,0.20646 -0.17175,0.41292 -0.25762,0.61938c-0.01023,0.14105 -0.08587,0.20646 -0.09611,0.34751c-0.17175,0.41292 -0.27809,0.90148 -0.44984,1.3144c-0.18198,0.55397 -0.43961,1.17335 -0.62159,1.72732c0.13082,0.15128 0.33728,0.23716 0.4681,0.38844c0.46408,-0.5335 0.71147,-1.01183 0.90369,-1.70685c0.07564,-0.06541 0.08587,-0.20646 0.16152,-0.27187c0.17175,-0.41292 0.35373,-0.96689 0.52548,-1.37981c0.36396,-1.10794 0.7177,-2.07483 1.14707,-3.10713c0.08587,-0.20646 0.24739,-0.47833 0.33327,-0.68479c0.50501,-1.09771 1.01003,-2.19541 1.6561,-3.28289c0.08587,-0.20646 0.23716,-0.33728 0.32303,-0.54374c0.01023,-0.14105 0.16152,-0.27187 0.17175,-0.41292c0.32303,-0.54374 0.6563,-1.22852 0.97933,-1.77226c0.32303,-0.54374 0.63583,-0.94642 1.15509,-1.26323c1.4719,-0.74398 2.05035,0.07785 2.69421,0.97532z" fill="#7c5090"/><path d="M256.12996,140.2227c0.45786,0.52949 0.70927,0.97311 1.02608,1.49237c0.06541,0.07564 0.13082,0.15128 0.12058,0.29233c0.12058,0.29233 0.31681,0.51926 0.4374,0.81159c0.05518,0.21669 0.18599,0.36798 0.24117,0.58467c0.18599,0.36798 0.37199,0.73595 0.55798,1.10393c0.2514,0.44362 0.50281,0.88724 0.61316,1.32062c1.36737,2.65147 2.58345,5.43376 3.5072,8.33664c0.06541,0.07564 0.05518,0.21669 0.12058,0.29233c0.58246,1.74377 0.94823,3.54272 1.31399,5.34167c0.04494,0.35774 0.10012,0.57444 0.2207,0.86677c0.27588,1.08346 0.41071,2.15669 0.54554,3.22992c0.04494,0.35774 0.08989,0.71549 0.13483,1.07323c0.26966,2.14646 0.46368,4.35833 0.59228,6.49455c-0.01023,0.14105 0.05518,0.21669 0.04494,0.35774c0.03471,0.49879 -0.00622,1.063 -0.04715,1.6272c-0.06541,-0.07564 -0.06541,-0.07564 -0.05518,-0.21669c-0.23094,-0.72572 -0.67857,-1.39626 -0.98515,-2.05657c-0.38222,-0.5949 -0.62339,-1.17957 -0.92997,-1.83988c-0.17576,-0.50903 -0.42716,-0.95264 -0.75421,-1.33085c-0.31681,-0.51926 -0.56821,-0.96288 -0.80938,-1.54755c-0.36175,-0.877 -0.87479,-1.62319 -1.3776,-2.51042c-0.38222,-0.5949 -0.69903,-1.11416 -1.00561,-1.77447c-0.80938,-1.54755 -1.90087,-3.11556 -2.93718,-4.46688c-0.06541,-0.07564 -0.13082,-0.15128 -0.19623,-0.22693c-0.58868,-0.68078 -1.05678,-1.06922 -1.96849,-1.20626c-0.8463,-0.0614 -1.31039,0.47211 -1.91552,0.99538c-0.38844,0.4681 -0.6256,0.80537 -0.88322,1.42475c-0.24739,0.47833 -0.49478,0.95666 -0.81781,1.50039c-0.40891,0.7502 -0.74217,1.43498 -1.15108,2.18518c-0.07564,0.06541 -0.08587,0.20646 -0.16152,0.27187c-0.25762,0.61938 -0.58066,1.16312 -0.83828,1.78249c-0.23716,0.33728 -0.37821,0.32704 -0.81159,0.4374c-1.58226,0.31059 -3.21969,0.40449 -4.85712,0.49839c-0.49879,0.03471 -0.85654,0.07965 -1.35533,0.11436c-1.21428,0.1246 -2.42856,0.24919 -3.5672,0.30838c-0.14105,-0.01023 -0.2821,-0.02047 -0.42315,-0.0307c-0.85654,0.07965 -1.70284,0.01826 -2.54914,-0.04314c-0.5642,-0.04093 -1.063,-0.00622 -1.56179,0.02849c-2.70043,0.08768 -5.2883,-1.3762 -7.21585,-3.14666c-0.06541,-0.07564 -0.19623,-0.22693 -0.33728,-0.23716c-1.66592,-1.46789 -3.2562,-3.00119 -4.76061,-4.74095c-0.06541,-0.07564 -0.13082,-0.15128 -0.19623,-0.22693c-0.13082,-0.15128 -0.32704,-0.37821 -0.45786,-0.52949c-0.4681,-0.38844 -0.88101,-0.56019 -1.45545,-0.46007c-0.36798,0.18599 -0.74618,0.51304 -1.04875,0.77467c-0.07564,0.06541 -0.15128,0.13082 -0.22693,0.19623c-0.52949,0.45786 -0.99358,0.99137 -1.32684,1.67615c-0.16152,0.27187 -0.24739,0.47833 -0.40891,0.7502c-0.07564,0.06541 -0.08587,0.20646 -0.08587,0.20646c-1.16131,2.32623 -2.51885,4.42554 -4.08285,6.43897c-1.17556,1.54534 -2.07925,3.25219 -2.71107,5.12056c-0.07564,0.06541 -0.08587,0.20646 -0.08587,0.20646c-1.53289,-3.30155 -0.42455,-7.82942 0.73275,-11.07759c0.01023,-0.14105 0.08587,-0.20646 0.09611,-0.34751c0.63182,-1.86837 2.62298,-2.92916 4.24617,-3.80395c1.25521,-0.6888 2.57583,-1.30196 3.96186,-1.83947c0.07564,-0.06541 0.15128,-0.13082 0.21669,-0.05518c0.50903,-0.17576 0.95264,-0.42716 1.53731,-0.66833c0.21669,-0.05518 0.29233,-0.12058 0.50903,-0.17576c0.21669,-0.05518 0.50903,-0.17576 0.66031,-0.30658c0.07564,-0.06541 0.29233,-0.12058 0.36798,-0.18599c0.29233,-0.12058 0.29233,-0.12058 0.71549,-0.08989c0.21669,-0.05518 0.21669,-0.05518 0.50903,-0.17576c0.73595,-0.37199 1.46167,-0.60292 2.19762,-0.97491c0.07564,-0.06541 0.29233,-0.12058 0.36798,-0.18599c0.80136,-0.29635 1.67836,-0.6581 2.47972,-0.95445c1.16934,-0.48234 2.41432,-1.03009 3.51824,-1.58807c0.07564,-0.06541 0.21669,-0.05518 0.36798,-0.18599c0.07564,-0.06541 0.15128,-0.13082 0.29233,-0.12058c0.36798,-0.18599 0.57444,-0.10012 0.99759,-0.06942c0.27187,0.16152 0.27187,0.16152 0.4681,0.38844c0.26164,0.30257 0.26164,0.30257 0.7502,0.40891c0.36798,-0.18599 0.36798,-0.18599 0.52949,-0.45786c-0.03471,-0.49879 -0.03471,-0.49879 -0.07965,-0.85654c0.51926,-0.31681 0.96288,-0.56821 1.4719,-0.74398c0.07564,-0.06541 0.21669,-0.05518 0.29233,-0.12058c0.21669,-0.05518 0.36798,-0.18599 0.50903,-0.17576c0.29233,-0.12058 0.50903,-0.17576 0.80136,-0.29635c0.80136,-0.29635 1.60272,-0.59269 2.40408,-0.88904c0.29233,-0.12058 0.58467,-0.24117 0.877,-0.36175c1.9707,-0.77869 3.93116,-1.41632 5.95704,-1.97831c1.3758,-0.39647 2.68618,-0.86857 3.93116,-1.41632c0.29233,-0.12058 0.50903,-0.17576 0.86677,-0.2207c0.27187,0.16152 0.27187,0.16152 0.4681,0.38844c0.26164,0.30257 0.26164,0.30257 0.60915,0.39867c0.29233,-0.12058 0.29233,-0.12058 0.52949,-0.45786c0.02047,-0.2821 0.0307,-0.42315 0.05116,-0.70525c0.69101,-0.72973 1.64365,-1.15689 2.67194,-1.64947z" fill="#a044a1"/><path d="M261.15574,200.92024c-0.00622,1.063 -0.28431,1.96448 -1.05096,2.75962c-1.97692,1.84168 -4.46688,2.93718 -6.93637,3.75058c-0.21669,0.05518 -0.21669,0.05518 -0.29233,0.12058c-1.60272,0.59269 -3.26062,0.96869 -4.85311,1.42033c-0.21669,0.05518 -0.43338,0.11035 -0.65008,0.16553c-2.02587,0.56199 -4.04151,0.98294 -6.17774,1.11154c-0.14105,-0.01023 -0.21669,0.05518 -0.35774,0.04494c-0.7809,0.01424 -1.49638,0.10413 -2.20163,0.05297c-0.2821,-0.02047 -0.63984,0.02448 -0.92195,0.00401c-0.63984,0.02448 -1.3451,-0.02669 -1.97471,-0.14326c-0.14105,-0.01023 -0.2821,-0.02047 -0.42315,-0.0307c-0.2821,-0.02047 -0.42315,-0.0307 -0.70525,-0.05116c-0.42315,-0.0307 -0.70525,-0.05116 -1.12841,-0.08186c-0.2821,-0.02047 -0.42315,-0.0307 -0.70525,-0.05116c-0.14105,-0.01023 -0.2821,-0.02047 -0.2821,-0.02047c-0.70525,-0.05116 -1.26946,-0.0921 -1.89907,-0.20867c-0.2821,-0.02047 -0.62961,-0.11657 -0.98735,-0.07163c-0.70525,-0.05116 -1.33486,-0.16774 -1.96448,-0.28431c-0.14105,-0.01023 -0.2821,-0.02047 -0.42315,-0.0307c-4.98172,-0.71589 -10.71764,-2.76264 -14.05349,-6.62037c-0.06541,-0.07564 -0.06541,-0.07564 -0.19623,-0.22693c-0.52327,-0.60513 -0.82985,-1.26544 -1.1262,-2.0668c2.71688,-1.29172 6.70101,-0.50641 9.39522,0.46891c0.55397,0.18198 1.10794,0.36396 1.66191,0.54595c2.07483,0.7177 4.08425,1.35975 6.25518,1.72993c0.34751,0.09611 0.77066,0.12681 1.11817,0.22291c2.93137,0.63804 5.94861,1.06962 8.97608,1.36016c0.14105,0.01023 0.42315,0.0307 0.5642,0.04093c1.12841,0.08186 2.33245,0.09832 3.47109,0.03913c0.14105,0.01023 0.2821,0.02047 0.35774,-0.04494c3.27486,-0.1878 6.28809,-0.67816 9.52825,-1.36475c0.14105,0.01023 0.21669,-0.05518 0.35774,-0.04494c0.65008,-0.16553 1.30015,-0.33106 1.89506,-0.71328c-0.06541,-0.07564 -0.13082,-0.15128 -0.13082,-0.15128c-0.07564,0.06541 -0.07564,0.06541 -0.29233,0.12058c-0.35774,0.04494 -0.65008,0.16553 -1.07323,0.13483c-1.49638,0.10413 -3.003,0.34931 -4.58525,0.6599c-1.22451,0.26565 -2.36315,0.32484 -3.57743,0.44943c-0.42315,-0.0307 -0.85654,0.07965 -1.21428,0.1246c-2.13623,0.12861 -4.26222,0.11617 -6.44339,-0.11297c-0.2821,-0.02047 -0.70525,-0.05116 -0.98735,-0.07163c-1.26946,-0.0921 -2.39786,-0.17396 -3.58144,-0.47251c-0.20646,-0.08587 -0.42315,-0.0307 -0.62961,-0.11657c-3.5058,-0.53792 -6.83985,-1.48876 -10.22908,-2.6563c-2.00942,-0.64205 -3.88802,-1.13282 -5.92814,-1.35173c-0.14105,-0.01023 -0.2821,-0.02047 -0.42315,-0.0307c-1.55156,-0.11256 -3.04794,-0.00843 -4.49938,0.45344c-0.24117,-0.58467 -0.27588,-1.08346 -0.376,-1.6579c-0.08989,-0.71549 -0.24518,-1.50661 -0.40048,-2.29774c-0.06541,-0.07564 0.01023,-0.14105 -0.05518,-0.21669c0.07564,-0.06541 0.15128,-0.13082 0.15128,-0.13082c0.2821,0.02047 0.2821,0.02047 0.5642,0.04093c0.70525,0.05116 1.3451,0.02669 1.98494,0.00221c0.21669,-0.05518 0.49879,-0.03471 0.71549,-0.08989c0.14105,0.01023 0.21669,-0.05518 0.35774,-0.04494c1.92977,-0.21448 3.8493,-0.28792 5.7586,-0.2203c0.14105,0.01023 0.2821,0.02047 0.49879,-0.03471c1.9093,0.06762 3.73273,0.3417 5.62156,0.69142c0.14105,0.01023 0.20646,0.08587 0.2821,0.02047c1.11817,0.22291 2.09529,0.43559 3.13782,0.72392c0.20646,0.08587 0.48856,0.10634 0.77066,0.12681c1.11817,0.22291 2.1607,0.51124 3.20323,0.79956c4.37658,1.23916 8.65305,1.90389 13.19736,1.80819c0.21669,-0.05518 0.49879,-0.03471 0.63984,-0.02448c0.14105,0.01023 0.14105,0.01023 0.35774,-0.04494c0.35774,-0.04494 0.63984,-0.02448 1.063,0.00622c1.84389,-0.00802 3.69802,-0.1571 5.55214,-0.30617c1.71307,-0.15931 5.92012,-0.49217 6.30013,2.08768z" fill="#823b2a"/><path d="M246.94684,121.19429c0.17576,0.50903 0.27588,1.08346 0.38623,1.51685c0.45164,1.59249 0.97892,3.11957 1.64726,4.65688c0.06541,0.07564 0.05518,0.21669 0.12058,0.29233c0.05518,0.21669 0.2514,0.44362 0.30658,0.66031c0.04494,0.35774 0.04494,0.35774 -0.04093,0.5642c-0.75642,0.65409 -1.76424,0.86456 -2.70665,1.15067c-0.35774,0.04494 -0.65008,0.16553 -1.01805,0.35152c-0.43338,0.11035 -0.71549,0.08989 -1.13864,0.05919c-0.97712,-0.21268 -1.84389,0.00802 -2.66572,0.58647c-0.15128,0.13082 -0.22693,0.19623 -0.37821,0.32704c0.05518,0.21669 0.04494,0.35774 0.17576,0.50903c-0.95264,0.42716 -1.76424,0.86456 -2.64124,1.22632c-0.877,0.36175 -1.82965,0.78892 -2.70665,1.15067c-1.61295,0.73374 -3.22591,1.46749 -4.90427,2.12559c-0.50903,0.17576 -0.877,0.36175 -1.38603,0.53752c-0.29233,0.12058 -0.58467,0.24117 -0.95264,0.42716c-1.74377,0.58246 -3.4426,1.52266 -5.06579,2.39745c-0.29233,0.12058 -0.50903,0.17576 -0.72572,0.23094c-0.06541,-0.07564 -0.13082,-0.15128 -0.26164,-0.30257c0.07564,-0.06541 0.08587,-0.20646 0.16152,-0.27187c0.23716,-0.33728 0.47432,-0.67455 0.71147,-1.01183c0.08587,-0.20646 0.3128,-0.40269 0.39867,-0.60915c1.67034,-2.50199 2.74177,-5.54371 3.66191,-8.45461c0.01023,-0.14105 0.01023,-0.14105 0.02047,-0.2821c0.55618,-1.80296 0.97131,-3.61615 1.17998,-5.51522c0.01023,-0.14105 0.02047,-0.2821 0.0307,-0.42315c0.11657,-0.62961 0.1575,-1.19381 0.13303,-1.83366c0.01023,-0.14105 0.02047,-0.2821 0.0307,-0.42315c0.52949,-0.45786 1.10393,-0.55798 1.75401,-0.72351c0.07564,-0.06541 0.21669,-0.05518 0.29233,-0.12058c0.21669,-0.05518 0.43338,-0.11035 0.65008,-0.16553c0.35774,-0.04494 0.65008,-0.16553 1.08346,-0.27588c1.08346,-0.27588 2.24257,-0.61717 3.3812,-0.67636c0.14105,0.01023 0.21669,-0.05518 0.35774,-0.04494c0.35774,-0.04494 0.63984,-0.02448 0.99759,-0.06942c0.21669,-0.05518 0.49879,-0.03471 0.63984,-0.02448c0.14105,0.01023 0.21669,-0.05518 0.35774,-0.04494c0.42315,0.0307 0.7809,-0.01424 1.20405,0.01645c1.56179,-0.02849 2.90689,-0.0018 4.20082,0.73014c0.20646,0.08587 0.27187,0.16152 0.47833,0.24739c0.27187,0.16152 0.68479,0.33327 0.95666,0.49478c0.76043,0.26786 1.0323,0.42937 1.27347,1.01404z" fill="#a044a1"/><path d="M252.20205,102.50438c0.43118,1.87459 -0.39687,3.51603 -1.29033,5.08184c-0.48455,0.81561 -1.03451,1.55557 -1.72552,2.2853c-0.85253,1.0016 -1.49859,2.08907 -1.9382,3.26242c-0.07564,0.06541 -0.08587,0.20646 -0.16152,0.27187c-0.67676,1.51063 -0.76886,2.78008 -0.60955,4.49316c0.03471,0.49879 0.07965,0.85654 -0.02669,1.3451c-0.61938,-0.25762 -1.09771,-0.50501 -1.64144,-0.82805c-0.40269,-0.3128 -0.89125,-0.41914 -1.44522,-0.60112c-0.20646,-0.08587 -0.20646,-0.08587 -0.33728,-0.23716c-0.11035,-0.43338 -0.07965,-0.85654 0.01645,-1.20405c0.01023,-0.14105 0.01023,-0.14105 0.02047,-0.2821c0.1882,-1.61697 0.72392,-3.13782 1.67255,-4.48693c0.07564,-0.06541 0.15128,-0.13082 0.16152,-0.27187c0.15128,-0.13082 0.16152,-0.27187 0.3128,-0.40269c0.38844,-0.4681 0.49478,-0.95666 0.67676,-1.51063c0.07564,-0.06541 0.15128,-0.13082 0.15128,-0.13082c-0.06541,-0.07564 -0.05518,-0.21669 -0.05518,-0.21669c-0.05518,-0.21669 -0.04494,-0.35774 -0.10012,-0.57444c-0.31681,-0.51926 -0.51304,-0.74618 -1.06701,-0.92817c-0.8463,-0.0614 -1.94,0.35553 -2.68618,0.86857c-0.07564,0.06541 -0.15128,0.13082 -0.22693,0.19623c-0.07564,0.06541 -0.15128,0.13082 -0.22693,0.19623c-0.07564,0.06541 -0.15128,0.13082 -0.22693,0.19623c-0.07564,0.06541 -0.15128,0.13082 -0.22693,0.19623c-0.07564,0.06541 -0.15128,0.13082 -0.22693,0.19623c-0.07564,0.06541 -0.07564,0.06541 -0.22693,0.19623c-0.22693,0.19623 -0.22693,0.19623 -0.38844,0.4681c-0.22693,0.19623 -0.45385,0.39245 -0.68078,0.58868c-0.15128,0.13082 -0.22693,0.19623 -0.37821,0.32704c-0.07564,0.06541 -0.15128,0.13082 -0.30257,0.26164c-0.17576,-0.50903 -0.06942,-0.99759 -0.10413,-1.49638c0.04715,-1.6272 0.10454,-3.39545 -0.93177,-4.74677c-0.32704,-0.37821 -0.32704,-0.37821 -0.82584,-0.3435c-0.63984,0.02448 -1.02829,0.49257 -1.41673,0.96067c-0.64607,1.08747 -0.70746,1.93378 -0.44182,3.15829c-0.01023,0.14105 0.05518,0.21669 0.04494,0.35774c0.11035,0.43338 0.2207,0.86677 0.25541,1.36556c0.08989,0.71549 0.25541,1.36556 -0.01244,2.12599c-0.30257,0.26164 -0.30257,0.26164 -0.52949,0.45786c-1.04253,-0.28832 -1.67615,-1.32684 -2.24437,-2.28972c-0.57845,-0.82183 -1.30818,-1.51284 -2.2853,-1.72552c-0.8463,-0.0614 -1.27969,0.04895 -2.02587,0.56199c-0.37821,0.32704 -0.61537,0.66432 -0.72171,1.15288c0.01424,0.7809 0.26565,1.22451 0.78892,1.82965c0.06541,0.07564 0.13082,0.15128 0.19623,0.22693c0.06541,0.07564 0.13082,0.15128 0.26164,0.30257c0.19623,0.22693 0.32704,0.37821 0.52327,0.60513c0.26164,0.30257 0.52327,0.60513 0.78491,0.9077c1.04654,1.21027 1.96227,2.26925 2.56519,3.73092c-0.51926,0.31681 -0.96288,0.56821 -1.53731,0.66833c-0.21669,0.05518 -0.29233,0.12058 -0.50903,0.17576c-0.07564,0.06541 -0.21669,0.05518 -0.21669,0.05518c-0.50903,0.17576 -1.01805,0.35152 -1.60272,0.59269c-0.24117,-0.58467 -0.41693,-1.09369 -0.51705,-1.66813c-0.17977,-1.43097 -0.73775,-2.5349 -1.57784,-3.65929c-0.69903,-1.11416 -1.39806,-2.22832 -1.94581,-3.4733c-0.18599,-0.36798 -0.30658,-0.66031 -0.56821,-0.96288c-0.62339,-1.17957 -1.17114,-2.42455 -0.86235,-3.74918c0.35373,-0.96689 0.97933,-1.77226 1.93198,-2.19943c0.877,-0.36175 1.59249,-0.45164 2.49397,-0.17355c1.30417,0.59089 2.2853,1.72552 3.26643,2.86014c0.45786,0.52949 0.92596,0.91793 1.61075,1.2512c0.49879,-0.03471 0.7809,-0.01424 1.1591,-0.34129c0.69101,-0.72973 0.76264,-1.71709 0.75863,-2.63903c-0.04494,-0.35774 -0.01424,-0.7809 -0.05919,-1.13864c-0.02448,-0.63984 -0.04895,-1.27969 0.06762,-1.9093c0.01023,-0.14105 -0.05518,-0.21669 0.02047,-0.2821c0.11256,-1.55156 0.71368,-2.99677 1.7829,-4.05355c0.83206,-0.7195 1.5026,-1.16713 2.64124,-1.22632c0.62961,0.11657 0.96689,0.35373 1.2837,0.87299c0.76444,1.1898 0.5967,2.52467 0.49438,3.93517c-0.17797,1.47592 -0.17797,1.47592 0.35955,2.86194c0.26164,0.30257 0.26164,0.30257 0.54374,0.32303c0.49879,-0.03471 0.80136,-0.29635 1.17957,-0.62339c0.15128,-0.13082 0.30257,-0.26164 0.37821,-0.32704c0.22693,-0.19623 0.45385,-0.39245 0.68078,-0.58868c1.58848,-1.37359 3.07061,-2.25861 5.26202,-2.17053c1.57202,-0.16954 2.3774,0.45606 2.78409,1.69081z" fill="#7c4f90"/><path d="M245.01608,108.71823c0.17576,0.50903 -0.07163,0.98735 -0.38443,1.39004c-0.23716,0.33728 -0.39867,0.60915 -0.63583,0.94642c-1.12038,1.76203 -1.6561,3.28289 -1.875,5.32301c-0.01023,0.14105 -0.09611,0.34751 -0.10634,0.48856c-0.01023,0.14105 -0.02047,0.2821 -0.0307,0.42315c-0.43338,0.11035 -0.79113,0.1553 -1.21428,0.1246c-2.1914,-0.08808 -4.46868,0.03029 -6.6356,0.58205c-0.05518,-0.21669 -0.12058,-0.29233 -0.17576,-0.50903c-0.06541,-0.07564 -0.05518,-0.21669 -0.12058,-0.29233c-0.05518,-0.21669 -0.11035,-0.43338 -0.30658,-0.66031c-0.37199,-0.73595 -0.89526,-1.34109 -1.41853,-1.94622c-0.13082,-0.15128 -0.32704,-0.37821 -0.45786,-0.52949c-0.26164,-0.30257 -0.45786,-0.52949 -0.7195,-0.83206c-0.26164,-0.30257 -0.45786,-0.52949 -0.7195,-0.83206c-0.13082,-0.15128 -0.13082,-0.15128 -0.19623,-0.22693c-0.39245,-0.45385 -0.78491,-0.9077 -0.88503,-1.48214c0.17175,-0.41292 0.17175,-0.41292 0.47432,-0.67455c0.58467,-0.24117 1.00782,-0.21047 1.56179,-0.02849c0.41292,0.17175 0.54374,0.32303 0.80537,0.6256c0.13082,0.15128 0.13082,0.15128 0.26164,0.30257c0.26164,0.30257 0.26164,0.30257 0.38222,0.5949c0.50281,0.88724 1.35312,1.87058 2.32001,2.22431c0.48856,0.10634 0.8463,0.0614 1.21428,-0.1246c0.51926,-0.31681 0.76665,-0.79514 0.94863,-1.34911c0.13704,-0.91171 -0.00802,-1.84389 -0.22873,-2.71066c-0.05518,-0.21669 -0.05518,-0.21669 -0.04494,-0.35774c-0.05518,-0.21669 -0.11035,-0.43338 -0.16553,-0.65008c-0.1553,-0.79113 -0.17977,-1.43097 0.01244,-2.12599c0.23716,-0.33728 0.53973,-0.59891 0.84229,-0.86055c1.10172,1.42696 0.89305,3.32603 0.83566,5.09428c0.03471,0.49879 0.00401,0.92195 0.33106,1.30015c0.33728,0.23716 0.33728,0.23716 0.69502,0.19221c0.80136,-0.29635 1.40649,-0.81962 1.94622,-1.41853c0.85253,-1.0016 1.82564,-1.71086 3.06038,-2.11756c0.43338,-0.11035 0.43338,-0.11035 0.62961,0.11657z" fill="#faaac5"/><path d="M218.92183,179.1396c0.06541,0.07564 0.13082,0.15128 0.13082,0.15128c-0.15128,0.13082 -0.15128,0.13082 -0.29233,0.12058c-1.63342,1.01584 -2.58205,2.36495 -3.07282,4.24356c-0.45606,2.3774 0.03029,4.46868 1.36295,6.62136c-0.5642,-0.04093 -1.11817,-0.22291 -1.67214,-0.4049c-0.06541,-0.07564 -0.20646,-0.08587 -0.27187,-0.16152c-2.3467,-0.87921 -5.56418,-2.45967 -6.74555,-4.74316c-0.61316,-1.32062 -0.71729,-2.817 -0.19181,-4.19681c0.26786,-0.76043 0.80758,-1.35934 1.47812,-1.80697c0.43338,-0.11035 0.85654,-0.07965 1.42074,-0.03872c0.21669,-0.05518 0.49879,-0.03471 0.71549,-0.08989c0.14105,0.01023 0.21669,-0.05518 0.35774,-0.04494c0.35774,-0.04494 0.71549,-0.08989 1.07323,-0.13483c0.99759,-0.06942 1.91953,-0.07343 2.83125,0.06361c0.42315,0.0307 0.8463,0.0614 1.3451,0.02669c0.35774,-0.04494 0.70525,0.05116 1.05276,0.14727c0.06541,0.07564 0.13082,0.15128 0.13082,0.15128c0.19623,0.22693 0.27187,0.16152 0.34751,0.09611z" fill="#fbfcfc"/><path d="M233.20045,182.65686c0.12058,0.29233 0.24117,0.58467 0.28611,0.94241c-0.01023,0.14105 0.05518,0.21669 0.04494,0.35774c-0.01023,0.14105 0.05518,0.21669 0.04494,0.35774c0.05518,0.21669 0.05518,0.21669 0.04494,0.35774c0.05518,0.21669 0.03471,0.49879 0.08989,0.71549c-0.02047,0.2821 0.10012,0.57444 0.1553,0.79113c-0.01023,0.14105 0.05518,0.21669 0.04494,0.35774c-0.01023,0.14105 0.05518,0.21669 0.04494,0.35774c-0.10634,0.48856 -0.47432,0.67455 -0.77688,0.93619c-2.75781,1.85593 -6.76462,3.33766 -10.1396,2.95102c0.07564,-0.06541 0.15128,-0.13082 0.22693,-0.19623c1.39225,-1.60051 2.14466,-3.17655 2.1571,-5.30254c-0.0939,-1.63743 -0.49036,-3.01323 -1.38562,-4.35431c-0.06541,-0.07564 -0.13082,-0.15128 -0.19623,-0.22693c-0.13082,-0.15128 -0.32704,-0.37821 -0.38222,-0.5949c0.63984,-0.02448 1.25922,0.23315 1.81319,0.41513c0.55397,0.18198 1.04253,0.28832 1.60673,0.32925c0.5642,0.04093 1.11817,0.22291 1.68238,0.26384c0.14105,0.01023 0.20646,0.08587 0.34751,0.09611c0.83607,0.20245 1.67214,0.4049 2.43257,0.67275c0.48856,0.10634 0.97712,0.21268 1.46568,0.31902c0.26164,0.30257 0.26164,0.30257 0.39245,0.45385z" fill="#fcfcfc"/><path d="M232.84712,178.73192c0.04494,0.35774 0.16553,0.65008 0.13483,1.07323c-0.01023,0.14105 0.05518,0.21669 -0.02047,0.2821c-0.01023,0.14105 -0.01023,0.14105 0.04494,0.35774c-0.01023,0.14105 -0.01023,0.14105 0.04494,0.35774c-0.02047,0.2821 0.03471,0.49879 0.01424,0.7809c-0.50903,0.17576 -0.71549,0.08989 -1.20405,-0.01645c-0.06541,-0.07564 -0.14105,-0.01023 -0.20646,-0.08587c-0.48856,-0.10634 -0.90148,-0.27809 -1.39004,-0.38443c-0.61938,-0.25762 -1.24899,-0.3742 -1.8786,-0.49077c-0.14105,-0.01023 -0.20646,-0.08587 -0.2821,-0.02047c-0.48856,-0.10634 -0.97712,-0.21268 -1.47592,-0.17797c-0.5642,-0.04093 -0.91171,-0.13704 -1.39004,-0.38443c-1.93378,-0.70746 -3.95343,-1.20847 -5.91791,-1.49278c-0.34751,-0.09611 -0.77066,-0.12681 -1.05276,-0.14727c-0.62961,-0.11657 -1.05276,-0.14727 -1.69261,-0.12279c-0.42315,-0.0307 -0.70525,-0.05116 -1.12841,-0.08186c-1.05276,-0.14727 -2.12599,-0.01244 -3.27486,0.1878c-0.65008,0.16553 -1.21428,0.1246 -1.91953,0.07343c-0.35774,0.04494 -0.63984,0.02448 -1.07323,0.13483c0.04093,-0.5642 0.14727,-1.05276 0.32925,-1.60673c0.07564,-0.06541 0.01023,-0.14105 0.08587,-0.20646c0.18198,-0.55397 0.50501,-1.09771 0.82805,-1.64144c0.16152,-0.27187 0.16152,-0.27187 0.18198,-0.55397c0.38844,-0.4681 0.98334,-0.85032 1.55778,-0.95043c0.85654,-0.07965 1.53109,0.39466 2.28129,0.80357c1.82744,1.19602 3.83686,1.83808 6.03849,1.78511c0.63984,-0.02448 1.26946,0.0921 1.89907,0.20867c0.2821,0.02047 0.62961,0.11657 0.91171,0.13704c1.40027,0.24338 2.63903,0.75863 3.95343,1.20847c1.8786,0.49077 3.55074,0.89567 5.60109,0.97352z" fill="#7c4f8f"/><path d="M256.9726,184.31057c-0.02047,0.2821 -0.02047,0.2821 -0.18198,0.55397c-0.01023,0.14105 -0.08587,0.20646 -0.09611,0.34751c-0.01023,0.14105 -0.08587,0.20646 -0.09611,0.34751c-0.08587,0.20646 -0.08587,0.20646 -0.09611,0.34751c-0.3435,0.82584 -0.687,1.65168 -1.17155,2.46728c-0.07564,0.06541 -0.16152,0.27187 -0.23716,0.33728c-1.19602,1.82744 -3.03189,3.67935 -5.00259,4.45804c-0.44362,0.2514 -0.81159,0.4374 -1.1898,0.76444c-0.06541,-0.07564 -0.13082,-0.15128 -0.13082,-0.15128c0.07564,-0.06541 0.07564,-0.06541 0.16152,-0.27187c1.06521,-1.97872 1.13282,-3.88802 0.50542,-5.98954c-0.17576,-0.50903 -0.35152,-1.01805 -0.66833,-1.53731c-0.06541,-0.07564 -0.06541,-0.07564 -0.12058,-0.29233c-0.2514,-0.44362 -0.57845,-0.82183 -0.90549,-1.20004c-0.06541,-0.07564 -0.13082,-0.15128 -0.19623,-0.22693c-0.19623,-0.22693 -0.32704,-0.37821 -0.52327,-0.60513c0.8463,0.0614 0.8463,0.0614 1.12841,0.08186c0.77066,0.12681 1.48615,0.03692 2.20163,-0.05297c1.43097,-0.17977 2.77607,-0.15309 4.17634,0.09029c0.34751,0.09611 0.70525,0.05116 1.063,0.00622c0.58467,-0.24117 1.07323,-0.13483 1.37981,0.52548z" fill="#fafafa"/><path d="M263.30586,156.62411c0.60694,2.38362 1.13823,4.83264 1.38742,7.2612c0.04494,0.35774 0.08989,0.71549 0.06942,0.99759c0.26966,2.14646 0.46368,4.35833 0.59228,6.49455c-0.01023,0.14105 0.05518,0.21669 0.04494,0.35774c0.03471,0.49879 -0.00622,1.063 -0.04715,1.6272c-0.06541,-0.07564 -0.06541,-0.07564 -0.05518,-0.21669c-0.23094,-0.72572 -0.67857,-1.39626 -0.98515,-2.05657c-0.38222,-0.5949 -0.62339,-1.17957 -0.92997,-1.83988c-0.17576,-0.50903 -0.42716,-0.95264 -0.75421,-1.33085c-0.31681,-0.51926 -0.56821,-0.96288 -0.80938,-1.54755c-0.36175,-0.877 -0.87479,-1.62319 -1.3776,-2.51042c-0.38222,-0.5949 -0.69903,-1.11416 -1.00561,-1.77447c-0.4374,-0.81159 -0.95043,-1.55778 -1.46347,-2.30396c-0.06541,-0.07564 -0.13082,-0.15128 -0.26164,-0.30257c-0.13082,-0.15128 -0.13082,-0.15128 -0.19623,-0.22693c-0.06541,-0.07564 -0.13082,-0.15128 -0.05518,-0.21669c0.07564,-0.06541 0.08587,-0.20646 0.08587,-0.20646c0.29233,-0.12058 0.50903,-0.17576 0.72572,-0.23094c0.21669,-0.05518 0.29233,-0.12058 0.50903,-0.17576c0.07564,-0.06541 0.21669,-0.05518 0.21669,-0.05518c1.60272,-0.59269 2.98875,-1.13021 4.30937,-1.74337z" fill="#7c4f90"/><path d="M241.61854,182.91309c-0.07564,0.06541 -0.15128,0.13082 -0.15128,0.13082c-1.07945,1.19783 -1.61516,2.71868 -1.45586,4.43176c0.18378,2.35292 1.1894,4.12739 2.61816,5.93256c-2.66973,-0.33547 -4.79351,-2.33286 -6.35309,-4.28931c-1.35312,-1.87058 -2.0357,-4.18879 -1.93738,-6.52124c0.65008,-0.16553 1.14887,-0.20024 1.76825,0.05739c0.82584,0.3435 1.61697,0.1882 2.4735,0.10855c2.71066,-0.22873 2.71066,-0.22873 3.03771,0.14948z" fill="#fafafb"/><path d="M257.31772,163.91741c0.11035,0.43338 0.11035,0.43338 0.2207,0.86677c0.23094,0.72572 0.39647,1.3758 0.77869,1.9707c0.63362,1.03852 1.18137,2.2835 0.80717,3.53249c-0.38844,0.4681 -0.82183,0.57845 -1.39626,0.67857c-0.49879,0.03471 -0.91171,-0.13704 -1.33486,-0.16774c-0.62961,-0.11657 -1.13864,0.05919 -1.71307,0.15931c-0.86677,0.2207 -1.56179,0.02849 -2.45304,-0.39065c-0.40269,-0.3128 -0.40269,-0.3128 -0.59891,-0.53973c-0.03471,-0.49879 0.12681,-0.77066 0.36396,-1.10794c0.24739,-0.47833 0.49478,-0.95666 0.67676,-1.51063c0.61136,-1.58627 1.45987,-3.50981 2.80095,-4.40507c0.92195,-0.00401 1.33486,0.16774 1.8479,0.91392z" fill="#06070e"/><path d="M249.02527,127.72576c0.19623,0.22693 0.31681,0.51926 0.57845,0.82183c-0.56019,0.88101 -1.92575,1.13643 -2.79252,1.35713c-0.35774,0.04494 -0.65008,0.16553 -1.01805,0.35152c-0.43338,0.11035 -0.71549,0.08989 -1.13864,0.05919c-0.97712,-0.21268 -1.84389,0.00802 -2.66572,0.58647c-0.15128,0.13082 -0.22693,0.19623 -0.37821,0.32704c0.05518,0.21669 0.04494,0.35774 0.17576,0.50903c-0.95264,0.42716 -1.76424,0.86456 -2.64124,1.22632c-0.877,0.36175 -1.82965,0.78892 -2.70665,1.15067c-1.61295,0.73374 -3.22591,1.46749 -4.90427,2.12559c-0.50903,0.17576 -0.877,0.36175 -1.38603,0.53752c-0.29233,0.12058 -0.58467,0.24117 -0.95264,0.42716c-1.74377,0.58246 -3.4426,1.52266 -5.06579,2.39745c-0.29233,0.12058 -0.50903,0.17576 -0.72572,0.23094c-0.06541,-0.07564 -0.13082,-0.15128 -0.26164,-0.30257c0.16152,-0.27187 0.32303,-0.54374 0.48455,-0.81561c0.07564,-0.06541 0.15128,-0.13082 0.08587,-0.20646c0.47432,-0.67455 0.99358,-0.99137 1.71929,-1.2223c1.75401,-0.72351 3.43237,-1.38161 5.05556,-2.2564c5.51964,-2.78991 11.06376,-4.93997 16.93492,-6.71183c0.44362,-0.2514 1.01805,-0.35152 1.60272,-0.59269z" fill="#fbaac6"/><path d="M221.01032,163.05582c0.12058,0.29233 0.16553,0.65008 0.28611,0.94241c0.24117,0.58467 0.55798,1.10393 0.87479,1.62319c0.31681,0.51926 0.50281,0.88724 0.52728,1.52708c-1.87058,1.35312 -3.87599,1.63301 -6.1328,1.46929c-0.20646,-0.08587 -0.20646,-0.08587 -0.40269,-0.3128c-0.10012,-0.57444 0.14727,-1.05276 0.39466,-1.53109c0.07564,-0.06541 0.08587,-0.20646 0.16152,-0.27187c0.07564,-0.06541 0.08587,-0.20646 0.16152,-0.27187c0.24739,-0.47833 0.56019,-0.88101 0.94863,-1.34911c0.54996,-0.73996 0.81781,-1.50039 1.02026,-2.33646c0.09611,-0.34751 0.09611,-0.34751 0.32303,-0.54374c0.86677,-0.2207 1.40027,0.24338 1.83767,1.05497z" fill="#06070e"/><path d="M224.60217,185.86149c0.1246,1.21428 -0.46629,2.51845 -1.17777,3.53028c-0.22693,0.19623 -0.45385,0.39245 -0.68078,0.58868c-0.07564,0.06541 -0.15128,0.13082 -0.22693,0.19623c-0.60513,0.52327 -1.11416,0.69903 -1.89506,0.71328c-0.14105,-0.01023 -0.2821,-0.02047 -0.42315,-0.0307c-0.14105,-0.01023 -0.2821,-0.02047 -0.42315,-0.0307c-0.48856,-0.10634 -0.61938,-0.25762 -0.88101,-0.56019c-0.29635,-0.80136 -0.24518,-1.50661 0.16373,-2.25681c0.59089,-1.30417 1.58447,-2.29553 2.89485,-2.76764c0.99759,-0.06942 2.07082,-0.20425 2.64926,0.61758z" fill="#fafafa"/><path d="M255.90722,163.81508c0.2514,0.44362 0.37199,0.73595 0.48234,1.16934c0.23094,0.72572 0.53752,1.38603 0.98515,2.05657c0.57845,0.82183 0.87479,1.62319 0.72752,2.67595c-0.07564,0.06541 -0.15128,0.13082 -0.30257,0.26164c-0.2821,-0.02047 -0.2821,-0.02047 -0.48856,-0.10634c-0.97712,-0.21268 -1.83366,-0.13303 -2.76584,0.01204c-0.65008,0.16553 -0.99759,0.06942 -1.61697,-0.1882c-0.06541,-0.07564 -0.13082,-0.15128 -0.26164,-0.30257c0.43961,-1.17335 0.94462,-2.27106 1.44964,-3.36876c0.07564,-0.06541 0.08587,-0.20646 0.23716,-0.33728c0.47432,-0.67455 0.94863,-1.34911 1.55377,-1.87238z" fill="#fbabc6"/><path d="M244.34089,140.50178c0.03471,0.49879 0.03471,0.49879 -0.0614,0.8463c-0.30257,0.26164 -0.52949,0.45786 -1.02829,0.49257c-0.34751,-0.09611 -0.54374,-0.32303 -0.80537,-0.6256c-0.58868,-0.68078 -1.14265,-0.86276 -1.97872,-1.06521c-0.20646,-0.08587 -0.20646,-0.08587 -0.34751,-0.09611c-0.8463,-0.0614 -1.64766,0.23495 -2.44903,0.53129c-0.21669,0.05518 -0.21669,0.05518 -0.57444,0.10012c-0.19623,-0.22693 -0.39245,-0.45385 -0.65409,-0.75642c0.01023,-0.14105 0.01023,-0.14105 0.01023,-0.14105c-0.18599,-0.36798 -0.18599,-0.36798 -0.45786,-0.52949c-0.63984,0.02448 -0.94241,0.28611 -1.46167,0.60292c-0.15128,0.13082 -0.22693,0.19623 -0.44362,0.2514c-0.07564,0.06541 -0.15128,0.13082 -0.30257,0.26164c0.06541,0.07564 0.13082,0.15128 0.13082,0.15128c-0.44362,0.2514 -0.44362,0.2514 -0.58467,0.24117c-0.13082,-0.15128 -0.26164,-0.30257 -0.39245,-0.45385c0.19221,-0.69502 0.57042,-1.02206 1.02427,-1.41452c0.07564,-0.06541 0.15128,-0.13082 0.22693,-0.19623c0.52949,-0.45786 1.03852,-0.63362 1.74377,-0.58246c0.14105,0.01023 0.14105,0.01023 0.2821,0.02047c0.42315,0.0307 0.62961,0.11657 0.96689,0.35373c0.19623,0.22693 0.39245,0.45385 0.58868,0.68078c0.07564,-0.06541 0.15128,-0.13082 0.22693,-0.19623c1.03852,-0.63362 2.37338,-0.46589 3.49156,-0.24297c1.18358,0.29856 2.21588,0.72793 2.8495,1.76645z" fill="#020105"/><path d="M246.96742,193.22664c-0.01023,0.14105 0.05518,0.21669 0.04494,0.35774c-0.81159,0.4374 -1.44121,0.32082 -2.27728,0.11838c-0.82584,-0.3435 -1.2837,-0.87299 -1.80697,-1.47812c-0.06541,-0.07564 -0.13082,-0.15128 -0.19623,-0.22693c-0.65409,-0.75642 -1.09149,-1.56801 -1.30196,-2.57583c0.30257,-0.26164 0.45385,-0.39245 0.81159,-0.4374c2.40809,0.03291 4.56258,1.60714 4.72589,4.24216z" fill="#f8f8f8"/><path d="M234.48298,148.36509c0.12058,0.29233 0.10012,0.57444 0.07965,0.85654c-0.46408,0.5335 -0.46408,0.5335 -0.74618,0.51304c-0.34751,-0.09611 -0.54374,-0.32303 -0.80537,-0.6256c-0.27187,-0.16152 -0.33728,-0.23716 -0.69502,-0.19221c-0.36798,0.18599 -0.73595,0.37199 -1.10393,0.55798c-0.29233,0.12058 -0.58467,0.24117 -0.94241,0.28611c-0.47833,-0.24739 -0.79514,-0.76665 -1.12218,-1.14486c-0.32704,-0.37821 -0.45786,-0.52949 -0.87078,-0.70124c-0.98735,-0.07163 -1.51685,0.38623 -2.27326,1.04032c-0.22693,0.19623 -0.22693,0.19623 -0.65008,0.16553c-0.19623,-0.22693 -0.19623,-0.22693 -0.39245,-0.45385c0.0307,-0.42315 0.11657,-0.62961 0.41914,-0.89125c0.15128,-0.13082 0.22693,-0.19623 0.37821,-0.32704c0.07564,-0.06541 0.15128,-0.13082 0.22693,-0.19623c0.68078,-0.58868 1.34109,-0.89526 2.18739,-0.83386c0.91171,0.13704 1.40027,0.24338 2.05436,0.9998c0.13082,0.15128 0.19623,0.22693 0.32704,0.37821c0.06541,0.07564 0.13082,0.15128 0.26164,0.30257c0.15128,-0.13082 0.15128,-0.13082 0.30257,-0.26164c0.67054,-0.44763 1.31039,-0.47211 2.01564,-0.42094c0.14105,0.01023 0.14105,0.01023 0.34751,0.09611c0.14105,0.01023 0.14105,0.01023 0.2821,0.02047c0.20646,0.08587 0.4681,0.38844 0.7195,0.83206z" fill="#020104"/><path d="M250.00576,161.11826c-0.19221,0.69502 -0.44984,1.3144 -0.84851,1.92354c-0.01023,0.14105 -0.16152,0.27187 -0.17175,0.41292c-0.01023,0.14105 -0.16152,0.27187 -0.17175,0.41292c-0.01023,0.14105 -0.08587,0.20646 -0.17175,0.41292c-0.3128,0.40269 -0.67054,0.44763 -1.10393,0.55798c-1.36556,0.25541 -2.7863,0.29414 -4.14163,0.4085c-1.13864,0.05919 -2.21187,0.19402 -3.42615,0.31861c0.23716,-0.33728 0.3128,-0.40269 0.68078,-0.58868c0.07564,-0.06541 0.21669,-0.05518 0.29233,-0.12058c0.07564,-0.06541 0.21669,-0.05518 0.36798,-0.18599c0.07564,-0.06541 0.29233,-0.12058 0.36798,-0.18599c6.23513,-2.87979 6.23513,-2.87979 8.32641,-3.36615z" fill="#7c4f90"/><path d="M240.83166,156.62429c-0.01023,0.14105 -0.02047,0.2821 0.11035,0.43338c-0.46408,0.5335 -0.46408,0.5335 -0.75642,0.65409c-0.5642,-0.04093 -0.90148,-0.27809 -1.30417,-0.59089c-0.67455,-0.47432 -1.29393,-0.73194 -2.08506,-0.57664c-0.21669,0.05518 -0.35774,0.04494 -0.50903,0.17576c-0.35774,0.04494 -0.49879,0.03471 -0.8463,-0.0614c-0.13082,-0.15128 -0.33728,-0.23716 -0.40269,-0.3128c-0.40269,-0.3128 -0.81561,-0.48455 -1.37981,-0.52548c-0.79113,0.1553 -1.59249,0.45164 -2.32844,0.82363c-0.27187,-0.16152 -0.27187,-0.16152 -0.4681,-0.38844c0.19221,-0.69502 0.49478,-0.95666 1.16532,-1.40429c0.96288,-0.56821 2.10152,-0.6274 3.14405,-0.33908c0.69502,0.19221 0.69502,0.19221 1.02206,0.57042c0.07564,-0.06541 0.21669,-0.05518 0.29233,-0.12058c1.23475,-0.4067 2.40809,0.03291 3.5058,0.53792c0.40269,0.3128 0.66432,0.61537 0.84008,1.12439z" fill="#040106"/><path d="M256.98568,149.92671c-0.02047,0.2821 -0.02047,0.2821 -0.25762,0.61938c-0.36798,0.18599 -0.36798,0.18599 -0.58467,0.24117c-0.48856,-0.10634 -0.81561,-0.48455 -1.14265,-0.86276c-0.79514,-0.76665 -1.55557,-1.03451 -2.61857,-1.04073c-0.63984,0.02448 -1.14887,0.20024 -1.66813,0.51705c0.06541,0.07564 0.13082,0.15128 0.13082,0.15128c-0.15128,0.13082 -0.29233,0.12058 -0.44362,0.2514c-0.32704,-0.37821 -0.32704,-0.37821 -0.37199,-0.73595c0.10634,-0.48856 0.48455,-0.81561 0.86276,-1.14265c1.10393,-0.55798 2.38362,-0.60694 3.63261,-0.23274c0.96689,0.35373 2.26082,1.08567 2.46106,2.23454z" fill="#040206"/><path d="M219.7511,162.82267c0.38222,0.5949 0.55798,1.10393 0.72351,1.75401c0.2207,0.86677 0.46187,1.45144 1.05055,2.13221c-0.98334,0.85032 -2.20786,1.11596 -3.54272,0.94823c-0.2821,-0.02047 -0.55397,-0.18198 -0.83607,-0.20245c0.33327,-0.68479 0.6563,-1.22852 1.12038,-1.76203c0.61537,-0.66432 0.81781,-1.50039 1.23695,-2.39164c0.15128,-0.13082 0.16152,-0.27187 0.24739,-0.47833z" fill="#f8a9c3"/><path d="M244.89625,148.48248c0.04494,0.35774 0.04494,0.35774 -0.05116,0.70525c-0.37821,0.32704 -0.5949,0.38222 -1.01805,0.35152c-0.34751,-0.09611 -0.61938,-0.25762 -0.89125,-0.41914c-1.09771,-0.50501 -2.01965,-0.501 -3.16852,-0.30076c-0.14105,-0.01023 -0.2821,-0.02047 -0.43338,0.11035c-0.07564,0.06541 -0.21669,0.05518 -0.21669,0.05518c-0.19623,-0.22693 -0.19623,-0.22693 -0.31681,-0.51926c0.10634,-0.48856 0.25762,-0.61938 0.6256,-0.80537c1.32062,-0.61316 3.02346,-0.63141 4.33786,-0.18158c0.55397,0.18198 0.88101,0.56019 1.13242,1.00381z" fill="#030105"/><path d="M222.48304,152.52818c-0.02047,0.2821 -0.02047,0.2821 -0.18198,0.55397c-0.44362,0.2514 -0.85654,0.07965 -1.42074,0.03872c-1.25922,-0.23315 -2.39786,-0.17396 -3.68778,0.01605c-0.31681,-0.51926 -0.31681,-0.51926 -0.28611,-0.94241c0.76665,-0.79514 1.63342,-1.01584 2.77206,-1.07503c1.13864,-0.05919 2.4735,0.10855 2.80456,1.4087z" fill="#030206"/><path d="M230.667,141.35308c-0.02047,0.2821 -0.02047,0.2821 -0.25762,0.61938c-0.07564,0.06541 -0.15128,0.13082 -0.22693,0.19623c-0.41292,-0.17175 -0.5335,-0.46408 -0.79514,-0.76665l0.01023,-0.14105c-0.2514,-0.44362 -0.57845,-0.82183 -1.06701,-0.92817c-0.34751,-0.09611 -0.5642,-0.04093 -0.85654,0.07965c-0.30257,0.26164 -0.30257,0.26164 -0.68078,0.58868c-0.07564,0.06541 -0.22693,0.19623 -0.30257,0.26164c-0.30257,0.26164 -0.30257,0.26164 -0.46408,0.5335c-0.07564,0.06541 -0.07564,0.06541 -0.15128,0.13082c-0.14105,-0.01023 -0.2821,-0.02047 -0.2821,-0.02047c-0.19623,-0.22693 -0.19623,-0.22693 -0.31681,-0.51926c0.21268,-0.97712 0.81781,-1.50039 1.63964,-2.07884c0.73595,-0.37199 1.3758,-0.39647 2.13623,-0.12861c0.82584,0.3435 1.54534,1.17556 1.61476,2.17315z" fill="#040307"/><path d="M246.69863,131.45628c0.11035,0.43338 0.02448,0.63984 -0.07163,0.98735c-0.15128,0.13082 -0.37821,0.32704 -0.52949,0.45786c-0.33728,-0.23716 -0.4681,-0.38844 -0.72973,-0.69101c-0.39245,-0.45385 -0.81561,-0.48455 -1.37981,-0.52548c-0.63984,0.02448 -1.27969,0.04895 -1.92977,0.21448c-0.2821,-0.02047 -0.2821,-0.02047 -0.55397,-0.18198c-0.19623,-0.22693 -0.19623,-0.22693 -0.10012,-0.57444c0.83206,-0.7195 1.91552,-0.99538 3.04393,-0.91352c1.063,0.00622 1.74778,0.33949 2.25059,1.22672z" fill="#050306"/><path d="M236.32007,131.83769c-0.02047,0.2821 -0.02047,0.2821 -0.18198,0.55397c-0.36798,0.18599 -0.57444,0.10012 -0.99759,0.06942c-0.20646,-0.08587 -0.48856,-0.10634 -0.69502,-0.19221c-0.83607,-0.20245 -1.99517,0.13884 -2.73113,0.51083c-0.15128,0.13082 -0.30257,0.26164 -0.45385,0.39245c-0.15128,0.13082 -0.15128,0.13082 -0.29233,0.12058c-0.19623,-0.22693 -0.19623,-0.22693 -0.39245,-0.45385c0.10634,-0.48856 0.26786,-0.76043 0.64607,-1.08747c0.9077,-0.78491 2.20786,-1.11596 3.47731,-1.02387c0.69502,0.19221 1.18358,0.29856 1.62098,1.11015z" fill="#040206"/><path d="M253.2965,142.14404c-0.01023,0.14105 -0.01023,0.14105 -0.3128,0.40269c-0.30257,0.26164 -0.30257,0.26164 -0.65008,0.16553c-0.13082,-0.15128 -0.13082,-0.15128 -0.32704,-0.37821c-0.06541,-0.07564 -0.13082,-0.15128 -0.19623,-0.22693c-0.13082,-0.15128 -0.26164,-0.30257 -0.39245,-0.45385c-0.32704,-0.37821 -0.52327,-0.60513 -1.01183,-0.71147c-0.42315,-0.0307 -0.85654,0.07965 -1.28992,0.19001c-0.21669,0.05518 -0.21669,0.05518 -0.43338,0.11035c-0.07564,0.06541 -0.21669,0.05518 -0.29233,0.12058c-0.13082,-0.15128 -0.18599,-0.36798 -0.31681,-0.51926c0.39867,-0.60915 0.85253,-1.0016 1.5026,-1.16713c0.86677,-0.2207 1.49638,-0.10413 2.32222,0.23937c0.80537,0.6256 1.253,1.29614 1.39806,2.22832z" fill="#040206"/><path d="M250.97527,154.59522c0.06541,0.07564 0.13082,0.15128 0.19623,0.22693c0.19623,0.22693 0.19623,0.22693 0.16553,0.65008c-0.23716,0.33728 -0.23716,0.33728 -0.52949,0.45786c-0.34751,-0.09611 -0.55397,-0.18198 -0.96689,-0.35373c-1.16312,-0.58066 -2.22611,-0.58688 -3.52627,-0.25582c-0.31681,-0.51926 -0.31681,-0.51926 -0.30658,-0.66031c0.53973,-0.59891 1.20004,-0.90549 1.98093,-0.91974c1.28992,-0.19001 2.13623,-0.12861 2.98654,0.85473z" fill="#030105"/><path d="M243.41627,197.22281c-0.63984,0.02448 -1.20405,-0.01645 -1.89907,-0.20867c-0.14105,-0.01023 -0.14105,-0.01023 -0.2821,-0.02047c-1.8786,-0.49077 -3.95343,-1.20847 -5.1962,-2.64566c-0.13082,-0.15128 -0.13082,-0.15128 -0.26164,-0.30257c-0.19623,-0.22693 -0.19623,-0.22693 -0.2514,-0.44362c0.15128,-0.13082 0.29233,-0.12058 0.44362,-0.2514c0.13082,0.15128 0.13082,0.15128 0.33728,0.23716c1.41452,1.02427 2.8495,1.76645 4.43577,2.3778c0.06541,0.07564 0.14105,0.01023 0.20646,0.08587c0.41292,0.17175 0.76043,0.26786 1.17335,0.43961c0.14105,0.01023 0.27187,0.16152 0.41292,0.17175c0.14105,0.01023 0.20646,0.08587 0.41292,0.17175c0.34751,0.09611 0.34751,0.09611 0.4681,0.38844z" fill="#05070f"/><path d="M260.4052,155.56292c0.06541,0.07564 0.19623,0.22693 0.26164,0.30257c0.26164,0.30257 0.26164,0.30257 0.23094,0.72572c-0.30257,0.26164 -0.30257,0.26164 -0.68078,0.58868c-0.42315,-0.0307 -0.48856,-0.10634 -0.81561,-0.48455c-0.66432,-0.61537 -1.20806,-0.9384 -2.13,-0.93439c-0.42315,-0.0307 -0.42315,-0.0307 -0.76043,-0.26786c-0.12058,-0.29233 -0.12058,-0.29233 -0.11035,-0.43338c0.23716,-0.33728 0.52949,-0.45786 0.96288,-0.56821c1.3451,0.02669 2.1914,0.08808 3.04172,1.07143z" fill="#030105"/><path d="M241.24923,125.46012c0.05518,0.21669 0.05518,0.21669 -0.04093,0.5642c-0.22693,0.19623 -0.22693,0.19623 -0.45385,0.39245c-0.13082,-0.15128 -0.13082,-0.15128 -0.27187,-0.16152c-0.88101,-0.56019 -1.35934,-0.80758 -2.43257,-0.67275c-0.14105,-0.01023 -0.21669,0.05518 -0.35774,0.04494c-0.21669,0.05518 -0.57444,0.10012 -0.79113,0.1553c-0.31681,-0.51926 -0.31681,-0.51926 -0.30658,-0.66031c0.53973,-0.59891 1.25521,-0.6888 2.04634,-0.84409c1.13864,-0.05919 2.04012,0.2189 2.60833,1.18178z" fill="#070309"/><path d="M258.87649,175.65752c0.30658,0.66031 -0.01645,1.20405 -0.27408,1.82343c-0.01023,0.14105 -0.08587,0.20646 -0.09611,0.34751c-0.36396,1.10794 -0.36396,1.10794 -0.88322,1.42475c-0.2821,-0.02047 -0.2821,-0.02047 -0.5642,-0.04093c-0.13082,-0.15128 -0.13082,-0.15128 -0.2514,-0.44362c0.11657,-0.62961 0.43961,-1.17335 0.69723,-1.79273c0.07564,-0.06541 0.07564,-0.06541 0.08587,-0.20646c0.32303,-0.54374 0.56019,-0.88101 1.07945,-1.19783c0.14105,0.01023 0.20646,0.08587 0.20646,0.08587z" fill="#04060d"/><path d="M255.55668,175.48758c0.44763,0.67054 0.22472,1.78872 0.09791,2.55938c-0.17175,0.41292 -0.32303,0.54374 -0.70124,0.87078c-0.14105,-0.01023 -0.14105,-0.01023 -0.41292,-0.17175c-0.26164,-0.30257 -0.2514,-0.44362 -0.1553,-0.79113c0.01023,-0.14105 0.08587,-0.20646 0.02047,-0.2821c0.01023,-0.14105 0.08587,-0.20646 0.09611,-0.34751c0.01023,-0.14105 0.01023,-0.14105 0.09611,-0.34751c0.08587,-0.20646 0.0307,-0.42315 0.11657,-0.62961c0.08587,-0.20646 0.0307,-0.42315 0.04093,-0.5642c0.22693,-0.19623 0.22693,-0.19623 0.45385,-0.39245c0.15128,-0.13082 0.15128,-0.13082 0.34751,0.09611z" fill="#05060e"/><path d="M214.48083,190.51534c0.06541,0.07564 0.05518,0.21669 0.05518,0.21669c-1.04253,-0.28832 -1.86837,-0.63182 -2.74938,-1.19201c-0.06541,-0.07564 -0.20646,-0.08587 -0.33728,-0.23716c-0.13082,-0.15128 -0.19623,-0.22693 -0.32704,-0.37821c-0.13082,-0.15128 -0.13082,-0.15128 -0.32704,-0.37821c0.34751,0.09611 0.68479,0.33327 0.95666,0.49478c0.06541,0.07564 0.20646,0.08587 0.27187,0.16152c0.20646,0.08587 0.33728,0.23716 0.54374,0.32303c0.47833,0.24739 0.95666,0.49478 1.36958,0.66653c0.27187,0.16152 0.33728,0.23716 0.54374,0.32303z" fill="#6b457d"/><path d="M222.53496,191.87951c0.06541,0.07564 0.05518,0.21669 0.18599,0.36798c-1.12841,-0.08186 -2.39786,-0.17396 -3.66732,-0.26605c-0.06541,-0.07564 -0.05518,-0.21669 -0.05518,-0.21669c0.14105,0.01023 0.14105,0.01023 0.2821,0.02047c0.42315,0.0307 0.70525,0.05116 1.12841,0.08186c0.14105,0.01023 0.2821,0.02047 0.42315,0.0307c0.49879,-0.03471 1.063,0.00622 1.70284,-0.01826z" fill="#664278"/><path d="M249.30714,155.11227c0.06541,0.07564 0.05518,0.21669 0.05518,0.21669c-0.70525,-0.05116 -1.41051,-0.10233 -2.25681,-0.16373c0.30257,-0.26164 0.44362,-0.2514 0.94241,-0.28611c0.14105,0.01023 0.21669,-0.05518 0.35774,-0.04494c0.34751,0.09611 0.62961,0.11657 0.90148,0.27809z" fill="#863987"/><path d="M257.22621,182.76924c0.13082,0.15128 0.12058,0.29233 0.2514,0.44362c-0.77066,-0.12681 -1.61697,-0.1882 -2.38763,-0.31501c0.50903,-0.17576 0.93218,-0.14506 1.35533,-0.11436c0.14105,0.01023 0.2821,0.02047 0.42315,0.0307c0.07564,-0.06541 0.21669,-0.05518 0.35774,-0.04494z" fill="#171122"/><path d="M212.34059,189.72201c-0.07564,0.06541 -0.15128,0.13082 -0.15128,0.13082c-0.54374,-0.32303 -1.01183,-0.71147 -1.32864,-1.23073c0.34751,0.09611 0.68479,0.33327 0.95666,0.49478c0.06541,0.07564 0.20646,0.08587 0.27187,0.16152c0.19623,0.22693 0.19623,0.22693 0.2514,0.44362z" fill="#644176"/><path d="M234.64589,155.89194c0.06541,0.07564 0.05518,0.21669 0.05518,0.21669c-0.5642,-0.04093 -0.98735,-0.07163 -1.55156,-0.11256c0.07564,-0.06541 0.08587,-0.20646 0.08587,-0.20646c0.14105,0.01023 0.35774,-0.04494 0.49879,-0.03471c0.14105,0.01023 0.21669,-0.05518 0.2821,0.02047c0.42315,0.0307 0.42315,0.0307 0.62961,0.11657z" fill="#883a89"/><path d="M240.74921,140.17032c0.06541,0.07564 0.05518,0.21669 0.05518,0.21669c-0.5642,-0.04093 -1.12841,-0.08186 -1.69261,-0.12279c0.37821,-0.32704 0.58467,-0.24117 1.08346,-0.27588c0.34751,0.09611 0.34751,0.09611 0.55397,0.18198z" fill="#6a447b"/><path d="M234.66217,132.21369c0.06541,0.07564 0.05518,0.21669 0.05518,0.21669c-0.42315,-0.0307 -0.8463,-0.0614 -1.41051,-0.10233c-0.06541,-0.07564 -0.05518,-0.21669 -0.05518,-0.21669c0.99759,-0.06942 0.99759,-0.06942 1.41051,0.10233z" fill="#863987"/><path d="M233.47917,149.49751l-0.07564,0.06541c-0.06541,-0.07564 -0.19623,-0.22693 -0.26164,-0.30257c-0.40269,-0.3128 -0.60915,-0.39867 -1.17335,-0.43961c0.86677,-0.2207 0.98735,0.07163 1.51063,0.67676z" fill="#813782"/><path d="M244.09827,181.95864c0.06541,0.07564 0.05518,0.21669 0.18599,0.36798c-0.35774,0.04494 -0.7809,0.01424 -1.13864,0.05919c0.07564,-0.06541 0.08587,-0.20646 0.23716,-0.33728c0.36798,-0.18599 0.36798,-0.18599 0.71549,-0.08989z" fill="#613f73"/><path d="M213.16643,190.06551c-0.07564,0.06541 -0.21669,0.05518 -0.36798,0.18599c-0.13082,-0.15128 -0.40269,-0.3128 -0.5335,-0.46408c0.63984,-0.02448 0.63984,-0.02448 0.90148,0.27809z" fill="#734a86"/></g></g></svg>